<?xml version="1.0" encoding="utf-8"?>
<!-- Generator: Adobe Illustrator 25.2.3, SVG Export Plug-In . SVG Version: 6.00 Build 0)  -->
<svg version="1.1" id="Capa_1" xmlns="http://www.w3.org/2000/svg" xmlns:xlink="http://www.w3.org/1999/xlink" x="0px" y="0px"
	 viewBox="0 0 400 43.1" style="enable-background:new 0 0 400 43.1;" xml:space="preserve">
<style type="text/css">
	.st0{fill:#EEEEEE;}
	.st1{fill:#2D3277;}
	.st2{fill:#009EE3;}
	.st3{fill:#FFFFFF;}
	.st4{fill:#333333;}
	.st5{fill:#46BAEB;}
	.st6{fill:#FBE934;}
	.st7{fill:#FA446B;}
	.st8{fill:#F83C62;}
	.st9{fill:#3149A4;}
	.st10{fill:#3048A4;}
	.st11{fill:#E3CDD2;}
	.st12{fill:#FDC1C4;}
	.st13{fill:#E7D9CF;}
	.st14{fill:#E3E1E2;}
	.st15{fill:#FDC4BA;}
	.st16{fill:#3E54AA;}
	.st17{fill:#FC8DA5;}
	.st18{fill:#FAE152;}
	.st19{fill:#DFCFE0;}
	.st20{fill:#D6D3D0;}
	.st21{fill:#D5DAEB;}
	.st22{fill:#E3E3E3;}
	.st23{fill:#E70C26;}
	.st24{fill:#F49C31;}
	.st25{fill:#0A4B95;}
	.st26{fill:#122665;}
	.st27{fill:#063B80;}
	.st28{fill:#1483C3;}
	.st29{fill:#FB6020;}
	.st30{fill:#6DCAEB;}
	.st31{fill:#073274;}
	.st32{fill:#21ADDD;}
	.st33{fill:#1795CE;}
	.st34{fill:#2BBBE6;}
	.st35{fill:#8ACFE9;}
	.st36{fill:#ABD5E6;}
	.st37{fill:#1C96CF;}
	.st38{fill:#2E2E2E;}
	.st39{fill:#343434;}
	.st40{fill:#353535;}
	.st41{fill:#2799D0;}
	.st42{fill:#212121;}
	.st43{fill:#363636;}
	.st44{fill:#3DA7D7;}
	.st45{fill:#282828;}
	.st46{fill:#1993CD;}
	.st47{fill:#1D9FD4;}
	.st48{fill:#4C4C4C;}
	.st49{fill:#050505;}
	.st50{fill:#1488C7;}
	.st51{fill:#99B5AC;}
	.st52{fill:#DF1B2D;}
	.st53{fill:#F6B137;}
	.st54{fill:#2C90CB;}
	.st55{fill:#E7622C;}
	.st56{fill:#429BCD;}
	.st57{fill:#8C9FB3;}
	.st58{fill:#33337A;}
	.st59{fill:#F7F7FA;}
	.st60{fill:#FCFDFD;}
	.st61{fill:#E7E7ED;}
	.st62{fill:#C6C7DC;}
	.st63{fill:#DEE0EB;}
	.st64{fill:#E6E7ED;}
	.st65{fill:#D8DAE6;}
	.st66{fill:#DADEE7;}
	.st67{fill:#DDF0F8;}
	.st68{fill:#E1F2F8;}
	.st69{fill:#1C9CD2;}
	.st70{fill:#EFF7FB;}
	.st71{fill:#2098CF;}
	.st72{fill:#31A9D8;}
	.st73{fill:#168FCB;}
	.st74{fill:#168ECB;}
	.st75{fill:#EBEBEB;}
	.st76{fill:#EAEAEA;}
</style>
<path class="st0" d="M141,40.9H9.2c-3.1,0-5.6-2.5-5.6-5.6V5.5c0-1.9,1.5-3.4,3.4-3.4H141c3.1,0,5.6,2.5,5.6,5.6v27.6
	C146.6,38.4,144.1,40.9,141,40.9z"/>
<path class="st0" d="M390.1,40.9H156.2c-3.3,0-5.9-2.6-5.9-5.9V5.6c0-2,1.6-3.6,3.6-3.6h236.2c3.3,0,5.9,2.6,5.9,5.9v27
	C396,38.2,393.4,40.9,390.1,40.9z"/>
<g>
	<path class="st1" d="M188.6,21c0-5.8-7.2-10.5-16.1-10.5c-8.9,0-16.1,4.7-16.1,10.5c0,0.1,0,0.6,0,0.6c0,6.2,6.3,11.1,16.1,11.1
		c9.9,0,16.1-5,16.1-11.1C188.6,21.4,188.6,21.3,188.6,21z"/>
	<path class="st2" d="M188,21c0,5.5-6.9,9.9-15.5,9.9c-8.5,0-15.5-4.4-15.5-9.9c0-5.5,6.9-9.9,15.5-9.9C181.1,11.1,188,15.5,188,21z
		"/>
	<path class="st3" d="M167.4,17.8c0,0-0.2,0.2-0.1,0.3c0.2,0.3,1,0.5,1.8,0.3c0.5-0.1,1-0.6,1.6-1c0.6-0.5,1.2-1,1.8-1.2
		c0.6-0.2,1.1-0.1,1.3,0c0.3,0.1,0.7,0.3,1.2,0.7c1.1,0.8,5.3,4.5,6.1,5.2c0.6-0.3,3.2-1.4,6.8-2.2c-0.3-1.9-1.5-3.7-3.2-5.1
		c-2.5,1-5.5,1.6-8.4,0.1c0,0-1.6-0.8-3.2-0.7c-2.3,0.1-3.3,1.1-4.4,2.1L167.4,17.8z"/>
	<path class="st3" d="M180.9,22.5c0,0-5-4.4-6.1-5.2c-0.6-0.5-1-0.6-1.4-0.7c-0.2,0-0.5,0-0.7,0.1c-0.5,0.1-1.2,0.6-1.8,1.1
		c-0.6,0.5-1.2,1-1.8,1.1c-0.7,0.2-1.6,0-2-0.3c-0.2-0.1-0.3-0.2-0.3-0.4c-0.1-0.3,0.1-0.6,0.2-0.6l1.4-1.5c0.2-0.2,0.3-0.3,0.5-0.5
		c-0.4,0.1-0.8,0.2-1.2,0.3c-0.5,0.1-1,0.3-1.5,0.3c-0.2,0-1.3-0.2-1.5-0.2c-1.2-0.3-2.3-0.7-3.9-1.4c-1.9,1.4-3.2,3.3-3.6,5.3
		c0.3,0.1,0.7,0.2,0.9,0.2c4.4,1,5.8,2,6,2.2c0.3-0.3,0.7-0.5,1.1-0.5c0.5,0,0.9,0.2,1.2,0.6c0.3-0.2,0.6-0.4,1-0.4
		c0.2,0,0.4,0,0.6,0.1c0.5,0.2,0.8,0.5,0.9,0.8c0.2-0.1,0.4-0.1,0.6-0.1c0.2,0,0.5,0.1,0.7,0.2c0.8,0.3,0.9,1.1,0.9,1.7
		c0.1,0,0.1,0,0.2,0c1,0,1.7,0.8,1.7,1.7c0,0.3-0.1,0.6-0.2,0.8c0.3,0.1,0.9,0.5,1.5,0.4c0.5-0.1,0.6-0.2,0.7-0.3
		c0-0.1,0.1-0.1,0-0.2l-1.2-1.4c0,0-0.2-0.2-0.1-0.3c0.1-0.1,0.2,0,0.3,0.1c0.6,0.5,1.4,1.3,1.4,1.3c0,0,0.1,0.1,0.3,0.2
		c0.2,0,0.7,0,1-0.2c0.1-0.1,0.2-0.1,0.2-0.2c0,0,0,0,0,0c0.3-0.4,0-0.8,0-0.8l-1.4-1.6c0,0-0.2-0.2-0.1-0.3c0.1-0.1,0.2,0,0.3,0.1
		c0.5,0.4,1.1,1,1.7,1.6c0.1,0.1,0.7,0.4,1.4,0c0.4-0.3,0.5-0.6,0.5-0.9c0-0.4-0.3-0.6-0.3-0.6l-2-2c0,0-0.2-0.2-0.1-0.3
		c0.1-0.1,0.2,0,0.3,0.1c0.6,0.5,2.3,2.1,2.3,2.1c0,0,0.6,0.4,1.3,0c0.3-0.2,0.4-0.4,0.4-0.7C181.3,22.8,180.9,22.5,180.9,22.5z"/>
	<path class="st3" d="M171.3,25c-0.3,0-0.6,0.2-0.7,0.2c0,0,0-0.1,0-0.2c0-0.1,0.4-1.3-0.6-1.7c-0.8-0.3-1.2,0-1.4,0.2
		c0,0-0.1,0-0.1,0c0-0.2-0.1-0.8-0.8-1c-0.9-0.3-1.5,0.4-1.7,0.6c-0.1-0.5-0.5-0.9-1.1-0.9c-0.6,0-1.1,0.5-1.1,1.1
		c0,0.6,0.5,1.1,1.1,1.1c0.3,0,0.6-0.1,0.7-0.3c0,0,0,0,0,0c0,0.3-0.1,1.2,0.9,1.6c0.4,0.2,0.8,0,1-0.2c0.1-0.1,0.1,0,0.1,0
		c0,0.2,0,0.8,0.8,1.1c0.6,0.2,0.9,0,1.1-0.2c0.1-0.1,0.1-0.1,0.1,0.1c0,0.7,0.6,1.3,1.4,1.3c0.8,0,1.4-0.6,1.4-1.4
		C172.7,25.7,172.1,25.1,171.3,25z"/>
	<path class="st1" d="M181.1,22c-1.5-1.3-5.1-4.4-6-5.1c-0.5-0.4-0.9-0.6-1.2-0.7c-0.1,0-0.4-0.1-0.6-0.1c-0.2,0-0.5,0-0.8,0.1
		c-0.6,0.2-1.2,0.7-1.8,1.2l0,0c-0.6,0.4-1.1,0.9-1.6,1c-0.2,0-0.4,0.1-0.6,0.1c-0.5,0-0.9-0.1-1.1-0.3c0,0,0-0.1,0.1-0.2l0,0
		l1.3-1.4c1.1-1.1,2-2,4.3-2.1c0,0,0.1,0,0.1,0c1.4,0,2.8,0.6,3,0.7c1.3,0.7,2.7,1,4.1,1c1.4,0,2.9-0.4,4.5-1.1
		c-0.2-0.1-0.4-0.3-0.5-0.4c-1.4,0.6-2.7,0.9-4,0.9c-1.3,0-2.6-0.3-3.8-0.9c-0.1,0-1.6-0.8-3.3-0.8c0,0-0.1,0-0.1,0
		c-1.9,0-3,0.7-3.7,1.3c-0.7,0-1.3,0.2-1.9,0.3c-0.5,0.1-0.9,0.3-1.3,0.3c-0.2,0-0.5,0-0.5,0c-0.5,0-2.8-0.6-4.7-1.3
		c-0.2,0.1-0.4,0.3-0.6,0.4c2,0.8,4.4,1.4,5.1,1.5c0.2,0,0.4,0,0.7,0c0.5,0,1-0.1,1.5-0.3c0.3-0.1,0.6-0.2,0.9-0.2
		c-0.1,0.1-0.2,0.2-0.3,0.3l-1.4,1.5c-0.1,0.1-0.3,0.4-0.2,0.8c0.1,0.1,0.2,0.3,0.4,0.4c0.3,0.2,0.9,0.4,1.4,0.4
		c0.2,0,0.4,0,0.6-0.1c0.6-0.1,1.2-0.6,1.8-1.1c0.5-0.4,1.2-0.9,1.8-1.1c0.2,0,0.3-0.1,0.5-0.1c0,0,0.1,0,0.1,0
		c0.4,0,0.7,0.2,1.3,0.6c1.1,0.8,6.1,5.2,6.1,5.2c0,0,0.3,0.3,0.3,0.7c0,0.3-0.2,0.5-0.4,0.6c-0.2,0.1-0.4,0.2-0.7,0.2
		c-0.3,0-0.6-0.2-0.6-0.2c0,0-1.7-1.6-2.3-2.1c-0.1-0.1-0.2-0.2-0.3-0.2c-0.1,0-0.1,0-0.1,0.1c-0.1,0.1,0,0.3,0.1,0.4l2,2
		c0,0,0.2,0.2,0.3,0.5c0,0.3-0.1,0.6-0.5,0.8c-0.2,0.2-0.5,0.2-0.7,0.2c-0.3,0-0.5-0.1-0.6-0.2l-0.3-0.3c-0.5-0.5-1.1-1-1.5-1.4
		c-0.1-0.1-0.2-0.2-0.3-0.2c0,0-0.1,0-0.1,0.1c0,0-0.1,0.1,0,0.3c0,0.1,0.1,0.1,0.1,0.1l1.4,1.6c0,0,0.3,0.4,0,0.7l-0.1,0.1
		c0,0-0.1,0.1-0.1,0.1c-0.2,0.2-0.6,0.2-0.7,0.2c-0.1,0-0.1,0-0.2,0c-0.1,0-0.2-0.1-0.3-0.1l0,0c-0.1-0.1-0.8-0.8-1.4-1.3
		c-0.1-0.1-0.2-0.2-0.3-0.2c-0.1,0-0.1,0-0.1,0.1c-0.1,0.1,0.1,0.3,0.1,0.4l1.2,1.4c0,0,0,0,0,0.1c0,0.1-0.2,0.2-0.6,0.3
		c-0.1,0-0.1,0-0.2,0c-0.5,0-1-0.2-1.2-0.4c0.1-0.2,0.2-0.5,0.2-0.8c0-1-0.8-1.8-1.8-1.8c0,0,0,0-0.1,0c0-0.5,0-1.3-0.9-1.7
		c-0.3-0.1-0.5-0.2-0.8-0.2c-0.2,0-0.4,0-0.6,0.1c-0.2-0.4-0.5-0.6-0.9-0.8c-0.2-0.1-0.4-0.1-0.7-0.1c-0.4,0-0.7,0.1-1,0.3
		c-0.3-0.4-0.7-0.6-1.2-0.6c-0.4,0-0.8,0.2-1.1,0.5c-0.4-0.3-1.9-1.3-6-2.2c-0.2,0-0.7-0.2-0.9-0.3c0,0.2-0.1,0.4-0.1,0.7
		c0,0,0.8,0.2,0.9,0.2c4.2,0.9,5.5,1.9,5.8,2.1c-0.1,0.2-0.1,0.4-0.1,0.6c0,0.9,0.7,1.6,1.6,1.6c0.1,0,0.2,0,0.3,0
		c0.1,0.6,0.5,1.1,1.2,1.4c0.2,0.1,0.4,0.1,0.6,0.1c0.1,0,0.2,0,0.4,0c0.1,0.3,0.4,0.7,1,0.9c0.2,0.1,0.4,0.1,0.6,0.1
		c0.2,0,0.3,0,0.5-0.1c0.3,0.7,1,1.1,1.7,1.1c0.5,0,1-0.2,1.3-0.6c0.3,0.2,0.9,0.5,1.6,0.5c0.1,0,0.2,0,0.2,0
		c0.6-0.1,0.9-0.3,1.1-0.5c0,0,0-0.1,0.1-0.1c0.1,0,0.3,0.1,0.5,0.1c0.3,0,0.7-0.1,1-0.4c0.3-0.2,0.6-0.6,0.6-0.9c0,0,0,0,0,0
		c0.1,0,0.2,0,0.3,0c0.4,0,0.7-0.1,1-0.3c0.6-0.4,0.8-1,0.7-1.3c0.1,0,0.2,0,0.3,0c0.3,0,0.7-0.1,1-0.3c0.4-0.3,0.6-0.6,0.7-1.1
		c0-0.3-0.1-0.6-0.2-0.9c1.1-0.5,3.5-1.4,6.4-2c0-0.2,0-0.4-0.1-0.7C184.4,20.6,181.8,21.7,181.1,22z M171.3,27.7
		c-0.7,0-1.2-0.5-1.3-1.2c0-0.1,0-0.2-0.1-0.2c-0.1,0-0.1,0-0.2,0.1c-0.1,0.1-0.3,0.3-0.6,0.3c-0.1,0-0.3,0-0.4-0.1
		c-0.7-0.3-0.7-0.8-0.7-1c0-0.1,0-0.1,0-0.2l0,0h0c0,0-0.1,0-0.1,0.1c-0.2,0.1-0.4,0.2-0.6,0.2c-0.1,0-0.2,0-0.3-0.1
		c-0.9-0.4-0.9-1.3-0.8-1.5c0-0.1,0-0.1,0-0.1l-0.1-0.1l-0.1,0.1c-0.2,0.2-0.4,0.3-0.7,0.3c-0.5,0-1-0.4-1-1c0-0.5,0.4-1,1-1
		c0.5,0,0.9,0.4,1,0.9l0,0.3l0.1-0.2c0,0,0.4-0.6,1.1-0.6c0.1,0,0.3,0,0.4,0.1c0.6,0.2,0.7,0.7,0.7,0.9c0,0.1,0.1,0.1,0.1,0.1
		c0.1,0,0.1,0,0.1-0.1c0.1-0.1,0.3-0.3,0.7-0.3c0.2,0,0.4,0,0.5,0.1c0.9,0.4,0.5,1.6,0.5,1.6c-0.1,0.2-0.1,0.3,0,0.3l0,0h0
		c0,0,0.1,0,0.2,0c0.1,0,0.3-0.1,0.5-0.1h0c0.7,0,1.3,0.6,1.3,1.3C172.6,27.1,172,27.7,171.3,27.7z"/>
</g>
<g>
	<path class="st1" d="M242.5,14.2c-0.6-0.7-1.5-1.1-2.6-1.1c-1.2,0-2.1,0.4-2.6,1.1c-0.6,0.7-0.9,1.6-0.9,2.6c0,1,0.3,1.9,0.9,2.6
		c0.6,0.7,1.5,1.1,2.6,1.1c1.2,0,2.1-0.4,2.6-1.1c0.6-0.7,0.9-1.6,0.9-2.6C243.4,15.8,243.1,14.9,242.5,14.2z M241.1,18.4
		c-0.3,0.4-0.7,0.6-1.2,0.6c-0.5,0-0.9-0.2-1.2-0.6c-0.3-0.4-0.4-0.9-0.4-1.6c0-0.7,0.1-1.2,0.4-1.6c0.3-0.4,0.7-0.6,1.2-0.6
		c0.5,0,0.9,0.2,1.2,0.6c0.3,0.4,0.4,0.9,0.4,1.6C241.5,17.5,241.4,18,241.1,18.4z"/>
	<path class="st1" d="M227.7,13.6c-0.6-0.3-1.3-0.4-2-0.4c-1.2,0-2,0.3-2.5,0.9c-0.3,0.4-0.5,0.9-0.5,1.5h1.7c0-0.3,0.1-0.5,0.3-0.6
		c0.2-0.2,0.5-0.3,0.9-0.3c0.4,0,0.7,0.1,0.9,0.2c0.2,0.1,0.3,0.3,0.3,0.6c0,0.2-0.1,0.4-0.4,0.5c-0.1,0.1-0.4,0.1-0.7,0.2l-0.6,0.1
		c-0.7,0.1-1.2,0.2-1.6,0.4c-0.7,0.4-1,1-1,1.8c0,0.7,0.2,1.2,0.6,1.5c0.4,0.4,0.9,0.5,1.6,0.5c3.9,0.2,3.9-2.1,3.9-2.5v-2.6
		C228.6,14.4,228.3,13.9,227.7,13.6z M226.8,17.5c0,0.6-0.2,1-0.5,1.2c-0.3,0.2-0.7,0.3-1.1,0.3c-0.2,0-0.5-0.1-0.6-0.2
		c-0.2-0.1-0.3-0.4-0.3-0.7c0-0.3,0.1-0.6,0.4-0.8c0.2-0.1,0.4-0.2,0.8-0.2l0.4-0.1c0.2,0,0.4-0.1,0.5-0.1c0.1,0,0.2-0.1,0.3-0.2
		V17.5z"/>
	<path class="st1" d="M218.7,14.7c0.5,0,0.8,0.1,1,0.4c0.1,0.2,0.2,0.4,0.3,0.7h1.9c-0.1-1-0.4-1.7-1-2.1c-0.6-0.4-1.3-0.6-2.2-0.6
		c-1.1,0-1.9,0.3-2.5,1c-0.6,0.7-0.9,1.6-0.9,2.8c0,1,0.3,1.9,0.8,2.6c0.6,0.7,1.4,1,2.6,1c1.2,0,2.1-0.4,2.6-1.2
		c0.4-0.5,0.6-1,0.6-1.6H220c0,0.4-0.2,0.7-0.3,0.9c-0.2,0.2-0.5,0.3-0.9,0.3c-0.6,0-1.1-0.3-1.3-0.9c-0.1-0.3-0.2-0.7-0.2-1.2
		c0-0.5,0.1-1,0.2-1.3C217.6,15,218.1,14.7,218.7,14.7z"/>
	<path class="st1" d="M214.7,13.1c-4,0-3.8,3.5-3.8,3.5v3.6h1.8v-3.4c0-0.6,0.1-1,0.2-1.2c0.2-0.5,0.7-0.7,1.5-0.7
		c0.1,0,0.1,0,0.2,0c0.1,0,0.2,0,0.3,0v-1.8C214.9,13.2,214.8,13.2,214.7,13.1C214.8,13.2,214.7,13.1,214.7,13.1z"/>
	<path class="st1" d="M208,18.4c-0.1,0.1-0.2,0.2-0.2,0.3c-0.3,0.2-0.6,0.3-1,0.3c-0.4,0-0.7-0.1-1-0.2c-0.5-0.3-0.7-0.7-0.7-1.4h5
		c0-0.6,0-1-0.1-1.4c-0.1-0.5-0.3-1-0.5-1.4c-0.3-0.5-0.7-0.8-1.2-1c-0.5-0.2-1-0.3-1.6-0.3c-1,0-1.8,0.3-2.5,1
		c-0.6,0.6-0.9,1.6-0.9,2.7c0,1.3,0.4,2.2,1.1,2.8c0.7,0.6,1.5,0.8,2.4,0.8c1.1,0,2-0.3,2.6-1c0.3-0.4,0.5-0.7,0.6-1H208z M205.6,15
		c0.3-0.3,0.6-0.4,1.1-0.4c0.4,0,0.8,0.1,1.1,0.4c0.3,0.2,0.4,0.6,0.5,1.1h-3.1C205.2,15.6,205.4,15.3,205.6,15z"/>
	<path class="st1" d="M202.5,20.3h-1.7v-4.2c0-0.4-0.1-1.3-1.2-1.3c-0.7,0-1.3,0.5-1.3,1.3v4.2h-1.7v-4.2c0-0.4-0.1-1.3-1.2-1.3
		c-0.7,0-1.3,0.5-1.3,1.3v4.2h-1.7v-4.1c0-1.7,1.1-3,2.9-3c0.9,0,1.6,0.4,2.1,1c0.5-0.6,1.2-1,2.1-1c1.8,0,2.9,1.2,2.9,3V20.3z"/>
	<path class="st1" d="M235.8,11c0,0-1.8-0.2-1.8,1.3l0,1.9c-0.2-0.3-0.5-0.6-0.8-0.8c-0.3-0.2-0.7-0.3-1.1-0.3c-0.9,0-1.6,0.3-2.2,1
		c-0.5,0.7-0.8,1.6-0.8,2.8c0,1,0.3,1.9,0.8,2.5c0.5,0.6,1.6,0.9,2.6,0.9c3.3,0,3.3-2.9,3.3-2.9L235.8,11z M233.7,18.4
		c-0.3,0.4-0.7,0.6-1.2,0.6c-0.5,0-0.9-0.2-1.1-0.6c-0.3-0.4-0.4-0.9-0.4-1.6c0-0.6,0.1-1.1,0.4-1.5c0.2-0.4,0.6-0.6,1.2-0.6
		c0.3,0,0.6,0.1,0.9,0.3c0.4,0.4,0.6,1,0.6,1.9C234.1,17.5,233.9,18,233.7,18.4z"/>
	<path class="st2" d="M205.9,31.8c0,0.2-0.1,0.5-0.3,0.6c-0.2,0.2-0.4,0.3-0.6,0.3h-0.9v-6.3c0-1.2,0.4-2,1.1-2.5
		c0.4-0.3,1.1-0.7,2.4-0.7c0.8,0,1.8,0.3,2.4,1c0.6,0.7,0.9,1.6,0.9,2.6c0,1.1-0.3,2-0.8,2.7c-0.5,0.7-1.2,1-2.1,1
		c-0.4,0-0.8-0.1-1.2-0.2c-0.4-0.2-0.6-0.4-0.9-0.8V31.8z M208.9,26.9c0-0.7-0.1-1.2-0.4-1.6c-0.3-0.4-0.6-0.6-1.1-0.6
		c-0.5,0-0.9,0.2-1.1,0.6c-0.2,0.3-0.4,0.9-0.4,1.6c0,0.7,0.1,1.2,0.4,1.5c0.3,0.4,0.6,0.6,1.1,0.6c0.5,0,0.8-0.2,1.1-0.6
		C208.8,28,208.9,27.5,208.9,26.9"/>
	<path class="st2" d="M222.8,29.9v-0.4c-0.3,0.5-0.7,0.8-1.3,0.9c-0.5,0.1-1.1,0.1-1.6-0.1c-0.5-0.2-1-0.6-1.3-1.2
		c-0.4-0.6-0.6-1.3-0.6-2.2c0-1.1,0.2-2,0.7-2.6c0.5-0.7,1.3-1,2.4-1c1.1,0,1.7,0.2,2.3,0.7c0.7,0.5,1.1,1.3,1.1,2.5v3.7
		c0,1.2-0.8,3.4-3.4,3.2c-1.6-0.1-2.5-0.8-3-2.3h1.9c0.1,0.2,0.4,0.4,0.6,0.6c0.3,0.1,0.6,0.2,0.9,0.1c0.3-0.1,0.5-0.2,0.8-0.5
		C222.6,30.9,222.7,30.5,222.8,29.9 M219.8,26.9c0,1.2,0.3,1.9,1,2c0.7,0.1,1.2,0,1.5-0.5c0.2-0.2,0.3-0.5,0.3-0.9
		c0.1-0.4,0.1-0.8,0-1.2c-0.1-0.4-0.2-0.8-0.4-1.1c-0.2-0.3-0.6-0.5-1-0.5c-0.6,0-1,0.2-1.2,0.7C219.9,25.8,219.8,26.3,219.8,26.9"
		/>
	<path class="st2" d="M216.4,23.7c-0.6-0.3-1.3-0.4-2-0.4c-1.2,0-2,0.3-2.5,0.9c-0.3,0.4-0.5,0.9-0.5,1.5h1.7c0-0.3,0.1-0.5,0.3-0.6
		c0.2-0.2,0.5-0.3,0.9-0.3c0.4,0,0.7,0.1,0.9,0.2c0.2,0.1,0.3,0.3,0.3,0.6c0,0.2-0.1,0.4-0.4,0.5c-0.1,0.1-0.4,0.1-0.7,0.2l-0.6,0.1
		c-0.7,0.1-1.2,0.2-1.6,0.4c-0.7,0.4-1,1-1,1.8c0,0.7,0.2,1.2,0.6,1.5c0.4,0.4,0.9,0.5,1.6,0.5c3.9,0.2,3.9-2.1,3.9-2.5v-2.6
		C217.3,24.5,217,24,216.4,23.7 M215.5,27.6c0,0.6-0.2,1-0.5,1.2c-0.3,0.2-0.7,0.3-1.1,0.3c-0.2,0-0.5-0.1-0.6-0.2
		c-0.2-0.1-0.3-0.4-0.3-0.7c0-0.3,0.1-0.6,0.4-0.8c0.2-0.1,0.4-0.2,0.8-0.2l0.4-0.1c0.2,0,0.4-0.1,0.5-0.1c0.1,0,0.2-0.1,0.3-0.2
		V27.6z"/>
	<path class="st2" d="M231.4,24.2c-0.6-0.7-1.5-1.1-2.6-1.1c-1.2,0-2.1,0.4-2.6,1.1c-0.6,0.7-0.9,1.6-0.9,2.6c0,1,0.3,1.9,0.9,2.6
		c0.6,0.7,1.5,1.1,2.6,1.1c1.2,0,2.1-0.4,2.6-1.1c0.6-0.7,0.9-1.6,0.9-2.6C232.3,25.8,232,25,231.4,24.2 M230,28.4
		c-0.3,0.4-0.7,0.6-1.2,0.6c-0.5,0-0.9-0.2-1.2-0.6c-0.3-0.4-0.4-0.9-0.4-1.6c0-0.7,0.1-1.2,0.4-1.6c0.3-0.4,0.7-0.6,1.2-0.6
		c0.5,0,0.9,0.2,1.2,0.6c0.3,0.4,0.4,0.9,0.4,1.6C230.4,27.5,230.2,28,230,28.4"/>
</g>
<g>
	<path class="st4" d="M258.7,22.1c-0.4-0.2-0.7-0.5-0.9-0.9c-0.2-0.4-0.3-0.8-0.3-1.2s0.1-0.8,0.3-1.2c0.2-0.4,0.5-0.7,0.9-0.9
		c0.4-0.2,0.8-0.3,1.2-0.3c0.7,0,1.3,0.2,1.7,0.7l-0.6,0.6c-0.3-0.3-0.7-0.5-1.1-0.5c-0.3,0-0.5,0.1-0.8,0.2s-0.4,0.3-0.6,0.6
		c-0.1,0.2-0.2,0.5-0.2,0.8s0.1,0.6,0.2,0.8c0.1,0.2,0.3,0.4,0.6,0.6s0.5,0.2,0.8,0.2c0.5,0,0.9-0.2,1.2-0.6l0.6,0.6
		c-0.2,0.3-0.5,0.5-0.8,0.6s-0.7,0.2-1,0.2C259.5,22.4,259.1,22.3,258.7,22.1z"/>
	<path class="st4" d="M263.2,17.7h1.7c0.3,0,0.6,0.1,0.8,0.2c0.2,0.1,0.4,0.3,0.5,0.5s0.2,0.5,0.2,0.7c0,0.3-0.1,0.6-0.3,0.8
		c-0.2,0.2-0.4,0.4-0.7,0.5l0,0l1.2,1.8v0.1h-1l-1.2-1.7H264v1.7h-0.9V17.7z M264.8,19.8c0.2,0,0.4-0.1,0.5-0.2
		c0.1-0.1,0.2-0.3,0.2-0.5c0-0.2-0.1-0.3-0.2-0.4c-0.1-0.1-0.3-0.2-0.5-0.2H264v1.3H264.8z"/>
	<path class="st4" d="M267.9,17.7h2.9v0.8h-2v1.1h1.8v0.8h-1.8v1.1h2v0.8h-2.9V17.7z M269.2,16.5h1l-0.6,0.9H269L269.2,16.5z"/>
	<path class="st4" d="M272.3,17.7h1.5c0.5,0,0.9,0.1,1.2,0.3c0.4,0.2,0.6,0.5,0.8,0.8s0.3,0.7,0.3,1.2s-0.1,0.8-0.3,1.2
		c-0.2,0.3-0.5,0.6-0.8,0.8c-0.4,0.2-0.8,0.3-1.2,0.3h-1.5V17.7z M273.8,21.5c0.5,0,0.9-0.1,1.1-0.4c0.3-0.3,0.4-0.6,0.4-1.1
		s-0.1-0.8-0.4-1.1c-0.3-0.3-0.6-0.4-1.1-0.4h-0.6v2.9H273.8z"/>
	<path class="st4" d="M277.6,17.7h0.9v4.6h-0.9V17.7z"/>
	<path class="st4" d="M281.1,18.5h-1.3v-0.8h3.4v0.8H282v3.8h-0.9V18.5z"/>
	<path class="st4" d="M285.3,22.1c-0.4-0.2-0.7-0.5-0.9-0.9c-0.2-0.4-0.3-0.8-0.3-1.2s0.1-0.8,0.3-1.2c0.2-0.4,0.5-0.7,0.9-0.9
		c0.4-0.2,0.8-0.3,1.2-0.3c0.4,0,0.9,0.1,1.2,0.3c0.4,0.2,0.6,0.5,0.9,0.9c0.2,0.4,0.3,0.8,0.3,1.2s-0.1,0.8-0.3,1.2
		c-0.2,0.4-0.5,0.7-0.9,0.9c-0.4,0.2-0.8,0.3-1.2,0.3C286.1,22.4,285.7,22.3,285.3,22.1z M287.3,21.4c0.2-0.1,0.4-0.3,0.6-0.6
		c0.1-0.2,0.2-0.5,0.2-0.8c0-0.3-0.1-0.6-0.2-0.8c-0.1-0.2-0.3-0.4-0.6-0.6c-0.2-0.1-0.5-0.2-0.8-0.2c-0.3,0-0.5,0.1-0.8,0.2
		c-0.2,0.1-0.4,0.3-0.5,0.6c-0.1,0.2-0.2,0.5-0.2,0.8c0,0.3,0.1,0.6,0.2,0.8c0.1,0.2,0.3,0.4,0.5,0.6c0.2,0.1,0.5,0.2,0.8,0.2
		C286.8,21.6,287.1,21.5,287.3,21.4z"/>
	<path class="st4" d="M290,22.9l0.4-0.6c-0.1,0-0.2-0.1-0.2-0.2c-0.1-0.1-0.1-0.2-0.1-0.3c0-0.2,0.1-0.3,0.2-0.4s0.2-0.2,0.4-0.2
		s0.3,0.1,0.4,0.2s0.2,0.2,0.2,0.4c0,0.1,0,0.1,0,0.2c0,0.1-0.1,0.1-0.1,0.2l-0.6,0.9L290,22.9z"/>
	<path class="st4" d="M294.8,17.7h1.5c0.5,0,0.9,0.1,1.2,0.3c0.4,0.2,0.6,0.5,0.8,0.8s0.3,0.7,0.3,1.2s-0.1,0.8-0.3,1.2
		c-0.2,0.3-0.5,0.6-0.8,0.8c-0.4,0.2-0.8,0.3-1.2,0.3h-1.5V17.7z M296.4,21.5c0.5,0,0.9-0.1,1.1-0.4c0.3-0.3,0.4-0.6,0.4-1.1
		s-0.1-0.8-0.4-1.1c-0.3-0.3-0.6-0.4-1.1-0.4h-0.6v2.9H296.4z"/>
	<path class="st4" d="M300.2,17.7h2.9v0.8h-2v1.1h1.8v0.8h-1.8v1.1h2v0.8h-2.9V17.7z M301.6,16.5h1l-0.6,0.9h-0.7L301.6,16.5z"/>
	<path class="st4" d="M304.6,17.7h1.8c0.3,0,0.5,0.1,0.7,0.2c0.2,0.1,0.4,0.3,0.5,0.4c0.1,0.2,0.2,0.4,0.2,0.6
		c0,0.2-0.1,0.4-0.2,0.6c-0.1,0.2-0.3,0.3-0.4,0.4v0.1c0.2,0.1,0.4,0.2,0.6,0.4s0.2,0.4,0.2,0.7c0,0.3-0.1,0.5-0.2,0.7
		c-0.1,0.2-0.3,0.3-0.5,0.4c-0.2,0.1-0.5,0.2-0.8,0.2h-1.9V17.7z M306.3,19.6c0.2,0,0.3-0.1,0.5-0.2c0.1-0.1,0.2-0.2,0.2-0.4
		c0-0.2-0.1-0.3-0.2-0.4c-0.1-0.1-0.3-0.2-0.4-0.2h-0.9v1.1H306.3z M306.4,21.5c0.2,0,0.4-0.1,0.5-0.2c0.1-0.1,0.2-0.2,0.2-0.4
		c0-0.2-0.1-0.3-0.2-0.4c-0.1-0.1-0.3-0.2-0.5-0.2h-0.9v1.2H306.4z"/>
	<path class="st4" d="M309.4,17.7h0.9v4.6h-0.9V17.7z"/>
	<path class="st4" d="M312.9,18.5h-1.3v-0.8h3.4v0.8h-1.3v3.8h-0.9V18.5z"/>
	<path class="st4" d="M317.1,22.1c-0.4-0.2-0.7-0.5-0.9-0.9c-0.2-0.4-0.3-0.8-0.3-1.2s0.1-0.8,0.3-1.2c0.2-0.4,0.5-0.7,0.9-0.9
		c0.4-0.2,0.8-0.3,1.2-0.3c0.4,0,0.9,0.1,1.2,0.3c0.4,0.2,0.6,0.5,0.9,0.9c0.2,0.4,0.3,0.8,0.3,1.2s-0.1,0.8-0.3,1.2
		c-0.2,0.4-0.5,0.7-0.9,0.9c-0.4,0.2-0.8,0.3-1.2,0.3C317.8,22.4,317.4,22.3,317.1,22.1z M319.1,21.4c0.2-0.1,0.4-0.3,0.6-0.6
		c0.1-0.2,0.2-0.5,0.2-0.8c0-0.3-0.1-0.6-0.2-0.8c-0.1-0.2-0.3-0.4-0.6-0.6c-0.2-0.1-0.5-0.2-0.8-0.2c-0.3,0-0.5,0.1-0.8,0.2
		c-0.2,0.1-0.4,0.3-0.5,0.6c-0.1,0.2-0.2,0.5-0.2,0.8c0,0.3,0.1,0.6,0.2,0.8c0.1,0.2,0.3,0.4,0.5,0.6c0.2,0.1,0.5,0.2,0.8,0.2
		C318.6,21.6,318.8,21.5,319.1,21.4z"/>
	<path class="st4" d="M321.8,22.9l0.4-0.6c-0.1,0-0.2-0.1-0.2-0.2c-0.1-0.1-0.1-0.2-0.1-0.3c0-0.2,0.1-0.3,0.2-0.4s0.2-0.2,0.4-0.2
		s0.3,0.1,0.4,0.2s0.2,0.2,0.2,0.4c0,0.1,0,0.1,0,0.2c0,0.1-0.1,0.1-0.1,0.2l-0.6,0.9L321.8,22.9z"/>
	<path class="st4" d="M326.6,17.7h2.9v0.8h-2v1.1h1.8v0.8h-1.8v1.1h2v0.8h-2.9V17.7z"/>
	<path class="st4" d="M331,17.7h2.9v0.8h-2v1.1h1.8v0.8h-1.8v1.8H331V17.7z"/>
	<path class="st4" d="M335.3,17.7h2.9v0.8h-2v1.1h1.8v0.8h-1.8v1.1h2v0.8h-2.9V17.7z"/>
	<path class="st4" d="M340.6,22.1c-0.4-0.2-0.7-0.5-0.9-0.9c-0.2-0.4-0.3-0.8-0.3-1.2s0.1-0.8,0.3-1.2c0.2-0.4,0.5-0.7,0.9-0.9
		c0.4-0.2,0.8-0.3,1.2-0.3c0.7,0,1.3,0.2,1.7,0.7l-0.6,0.6c-0.3-0.3-0.7-0.5-1.1-0.5c-0.3,0-0.5,0.1-0.8,0.2s-0.4,0.3-0.6,0.6
		c-0.1,0.2-0.2,0.5-0.2,0.8s0.1,0.6,0.2,0.8c0.1,0.2,0.3,0.4,0.6,0.6s0.5,0.2,0.8,0.2c0.5,0,0.9-0.2,1.2-0.6l0.6,0.6
		c-0.2,0.3-0.5,0.5-0.8,0.6s-0.7,0.2-1,0.2C341.3,22.4,340.9,22.3,340.6,22.1z"/>
	<path class="st4" d="M346,18.5h-1.3v-0.8h3.4v0.8h-1.3v3.8H346V18.5z"/>
	<path class="st4" d="M349.4,17.7h0.9v4.6h-0.9V17.7z"/>
	<path class="st4" d="M351.5,17.7h0.9l0.9,2.8l0.2,0.6h0.1l0.2-0.6l1-2.8h0.9l-1.7,4.6h-0.9L351.5,17.7z"/>
	<path class="st4" d="M357.6,22.1c-0.4-0.2-0.7-0.5-0.9-0.9c-0.2-0.4-0.3-0.8-0.3-1.2s0.1-0.8,0.3-1.2c0.2-0.4,0.5-0.7,0.9-0.9
		c0.4-0.2,0.8-0.3,1.2-0.3c0.4,0,0.9,0.1,1.2,0.3c0.4,0.2,0.6,0.5,0.9,0.9c0.2,0.4,0.3,0.8,0.3,1.2s-0.1,0.8-0.3,1.2
		c-0.2,0.4-0.5,0.7-0.9,0.9c-0.4,0.2-0.8,0.3-1.2,0.3C358.4,22.4,358,22.3,357.6,22.1z M359.6,21.4c0.2-0.1,0.4-0.3,0.6-0.6
		c0.1-0.2,0.2-0.5,0.2-0.8c0-0.3-0.1-0.6-0.2-0.8c-0.1-0.2-0.3-0.4-0.6-0.6c-0.2-0.1-0.5-0.2-0.8-0.2c-0.3,0-0.5,0.1-0.8,0.2
		c-0.2,0.1-0.4,0.3-0.5,0.6c-0.1,0.2-0.2,0.5-0.2,0.8c0,0.3,0.1,0.6,0.2,0.8c0.1,0.2,0.3,0.4,0.5,0.6c0.2,0.1,0.5,0.2,0.8,0.2
		C359.1,21.6,359.4,21.5,359.6,21.4z"/>
</g>
<rect x="33" y="7.3" class="st5" width="0.4" height="29.5"/>
<rect x="250.3" y="7.3" class="st2" width="0.4" height="29.5"/>
<g>
	<path class="st5" d="M19.8,37l-6.1-6.2c-0.7-0.7-0.1-1.9,0.9-1.9h12.1c1,0,1.6,1.2,0.9,1.9L21.6,37C21.1,37.5,20.3,37.5,19.8,37"/>
	<path class="st5" d="M14.9,9c0.2,0.1,0.4,0.2,0.5,0.4c0.1,0.2,0.2,0.5,0.2,0.8v1.9h-0.8l-0.1-0.3h0c-0.1,0.1-0.2,0.2-0.4,0.3
		c-0.1,0.1-0.3,0.1-0.5,0.1c-0.2,0-0.4,0-0.6-0.1c-0.2-0.1-0.3-0.2-0.4-0.3c-0.1-0.1-0.1-0.3-0.1-0.5c0-0.3,0.1-0.6,0.3-0.7
		c0.2-0.2,0.6-0.3,1-0.3l0.5,0v0c0-0.2,0-0.3-0.1-0.4c0-0.1-0.1-0.1-0.2-0.2c-0.1,0-0.3-0.1-0.4-0.1c-0.1,0-0.3,0-0.4,0
		c-0.2,0-0.3,0.1-0.5,0.1V9c0.2,0,0.3-0.1,0.5-0.1c0.2,0,0.4,0,0.5,0C14.4,8.9,14.7,8.9,14.9,9 M14.4,11.5c0.1,0,0.2-0.1,0.2-0.2
		v-0.6l-0.4,0c-0.2,0-0.3,0.1-0.4,0.1c-0.1,0.1-0.1,0.2-0.1,0.3c0,0.1,0,0.2,0.1,0.3c0.1,0.1,0.2,0.1,0.3,0.1
		C14.2,11.6,14.3,11.6,14.4,11.5"/>
	<path class="st5" d="M16,7.3h1v1.9h0C17.2,9.1,17.3,9,17.4,9c0.2-0.1,0.3-0.1,0.5-0.1c0.3,0,0.6,0.1,0.8,0.3c0.2,0.2,0.3,0.5,0.3,1
		v2h-1v-2c0-0.2,0-0.3-0.1-0.4c-0.1-0.1-0.2-0.1-0.3-0.1c-0.1,0-0.2,0-0.3,0.1c-0.1,0-0.2,0.1-0.3,0.2v2.2h-1V7.3z"/>
	<path class="st5" d="M20.1,12.1c-0.2-0.1-0.4-0.3-0.6-0.6c-0.1-0.3-0.2-0.6-0.2-0.9c0-0.6,0.1-1,0.4-1.3C20.1,9,20.5,8.9,21,8.9
		c0.5,0,0.9,0.1,1.2,0.4c0.3,0.3,0.4,0.7,0.4,1.3c0,0.4-0.1,0.7-0.2,0.9c-0.1,0.3-0.3,0.4-0.6,0.6c-0.2,0.1-0.5,0.2-0.9,0.2
		C20.6,12.2,20.4,12.2,20.1,12.1 M21.3,11.4c0.1-0.1,0.2-0.2,0.2-0.3c0-0.1,0.1-0.3,0.1-0.6c0-0.2,0-0.4-0.1-0.6
		c0-0.1-0.1-0.2-0.2-0.3c-0.1-0.1-0.2-0.1-0.3-0.1c-0.1,0-0.3,0-0.3,0.1c-0.1,0.1-0.2,0.2-0.2,0.3c0,0.1-0.1,0.3-0.1,0.6
		c0,0.2,0,0.4,0.1,0.6c0,0.1,0.1,0.2,0.2,0.3c0.1,0.1,0.2,0.1,0.3,0.1C21.1,11.5,21.2,11.5,21.3,11.4"/>
	<path class="st5" d="M22.9,8.9h0.8l0.1,0.4h0c0.1-0.2,0.2-0.3,0.4-0.4c0.1-0.1,0.3-0.1,0.5-0.1c0.1,0,0.2,0,0.3,0v0.9
		c-0.1,0-0.2,0-0.3,0c-0.1,0-0.3,0-0.4,0.1C24.1,9.9,24,9.9,23.9,10v2.1h-1V8.9z"/>
	<path class="st5" d="M27.3,9c0.2,0.1,0.4,0.2,0.5,0.4c0.1,0.2,0.2,0.5,0.2,0.8v1.9h-0.8l-0.1-0.3h0c-0.1,0.1-0.2,0.2-0.4,0.3
		c-0.1,0.1-0.3,0.1-0.5,0.1c-0.2,0-0.4,0-0.6-0.1c-0.2-0.1-0.3-0.2-0.4-0.3c-0.1-0.1-0.1-0.3-0.1-0.5c0-0.3,0.1-0.6,0.3-0.7
		c0.2-0.2,0.6-0.3,1-0.3l0.5,0v0c0-0.2,0-0.3-0.1-0.4c0-0.1-0.1-0.1-0.2-0.2c-0.1,0-0.3-0.1-0.4-0.1c-0.1,0-0.3,0-0.4,0
		c-0.2,0-0.3,0.1-0.5,0.1V9c0.2,0,0.3-0.1,0.5-0.1c0.2,0,0.4,0,0.5,0C26.8,8.9,27.1,8.9,27.3,9 M26.8,11.5c0.1,0,0.2-0.1,0.2-0.2
		v-0.6l-0.4,0c-0.2,0-0.3,0.1-0.4,0.1c-0.1,0.1-0.1,0.2-0.1,0.3c0,0.1,0,0.2,0.1,0.3c0.1,0.1,0.2,0.1,0.3,0.1
		C26.6,11.6,26.7,11.6,26.8,11.5"/>
	<polygon class="st5" points="16.1,14.6 18.3,14.6 18.3,26.1 14.9,26.1 14.9,18.5 12.5,20.2 12.5,17.1 	"/>
	<path class="st5" d="M28,23.4v2.8h-8.1v-1.8l3.1-3.7c0.4-0.5,0.7-1,0.9-1.3c0.2-0.4,0.3-0.7,0.3-1c0-0.4-0.1-0.7-0.4-0.9
		c-0.3-0.2-0.8-0.3-1.4-0.3c-0.4,0-0.9,0-1.4,0.1c-0.5,0.1-0.9,0.2-1.2,0.3v-2.7c0.4-0.1,0.8-0.2,1.4-0.3c0.6-0.1,1.1-0.1,1.6-0.1
		c1.6,0,2.8,0.3,3.6,0.9c0.8,0.6,1.2,1.5,1.2,2.7c0,0.6-0.1,1.2-0.4,1.8c-0.2,0.6-0.6,1.2-1.2,1.8l-1.6,1.8H28z"/>
</g>
<g>
	<path class="st5" d="M38.2,7.3c0-0.1,0.1-0.2,0.2-0.2h2.6c1.3,0,2.4,1.1,2.4,2.4c0,1.4-1.1,2.5-2.4,2.5h-1.1v2.6
		c0,0.1-0.1,0.2-0.2,0.2h-1.3c-0.1,0-0.2-0.1-0.2-0.2V7.3z M41,10.4c0.5,0,0.9-0.4,0.9-0.9c0-0.5-0.4-0.8-0.9-0.8h-1v1.7H41z"/>
	<path class="st5" d="M44.6,7.3c0-0.1,0.1-0.2,0.2-0.2h1.3c0.1,0,0.2,0.1,0.2,0.2v5.8h2.6c0.1,0,0.2,0.1,0.2,0.2v1.2
		c0,0.1-0.1,0.2-0.2,0.2h-4.1c-0.1,0-0.2-0.1-0.2-0.2V7.3z"/>
	<path class="st5" d="M49.6,14.4L53,7.1C53,7,53.1,7,53.2,7h0.1c0.1,0,0.2,0.1,0.2,0.1l3.4,7.3c0.1,0.1,0,0.3-0.2,0.3h-1.2
		c-0.2,0-0.3-0.1-0.4-0.3l-0.4-0.9h-3l-0.4,0.9c-0.1,0.1-0.2,0.3-0.4,0.3h-1.2C49.6,14.7,49.5,14.6,49.6,14.4z M54,12.1l-0.8-1.8h0
		l-0.8,1.8H54z"/>
	<path class="st5" d="M57.7,7.2c0-0.1,0.1-0.2,0.2-0.2h0.3l4.3,4.2h0V7.3c0-0.1,0.1-0.2,0.2-0.2h1.3c0.1,0,0.2,0.1,0.2,0.2v7.3
		c0,0.1-0.1,0.2-0.2,0.2h-0.2c0,0-0.1,0-0.1-0.1l-4.3-4.3h0v4.1c0,0.1-0.1,0.2-0.2,0.2H58c-0.1,0-0.2-0.1-0.2-0.2L57.7,7.2z"/>
	<path class="st5" d="M68.6,7.3c0-0.1,0.1-0.2,0.2-0.2h2.7c2.1,0,3.8,1.7,3.8,3.8c0,2.1-1.7,3.8-3.8,3.8h-2.7
		c-0.1,0-0.2-0.1-0.2-0.2V7.3z M71.3,13.1c1.2,0,2.1-1,2.1-2.2c0-1.2-0.9-2.2-2.1-2.2h-1v4.4H71.3z"/>
	<path class="st5" d="M76.6,7.3c0-0.1,0.1-0.2,0.2-0.2h4.5c0.1,0,0.2,0.1,0.2,0.2v1.2c0,0.1-0.1,0.2-0.2,0.2h-3V10h2.5
		c0.1,0,0.2,0.1,0.2,0.2v1.2c0,0.1-0.1,0.2-0.2,0.2h-2.5v1.5h3c0.1,0,0.2,0.1,0.2,0.2v1.2c0,0.1-0.1,0.2-0.2,0.2h-4.5
		c-0.1,0-0.2-0.1-0.2-0.2V7.3z"/>
	<path class="st5" d="M85.9,9.6h-1c-0.1,0-0.2-0.1-0.2-0.2V8.7c0,0,0-0.1,0.1-0.2l1.6-1.2h1c0.1,0,0.2,0.1,0.2,0.2v7
		c0,0.1-0.1,0.2-0.2,0.2h-1.2c-0.1,0-0.2-0.1-0.2-0.2V9.6z"/>
	<path class="st5" d="M88.7,14.3c0.6-0.8,2.2-3,2.9-4c0.1-0.2,0.3-0.5,0.3-0.8c0-0.4-0.3-0.8-1-0.8c-0.4,0-0.9,0.3-1.1,0.5
		c-0.1,0.1-0.2,0.1-0.3,0l-0.7-0.7c-0.1-0.1-0.1-0.2,0-0.3c0,0,0.9-1.1,2.2-1.1c1.6,0,2.5,1,2.5,2.2c0,0.6-0.2,0.9-0.4,1.4
		c-0.3,0.6-1.2,1.8-1.8,2.5h1.9c0.1,0,0.2,0.1,0.2,0.2v1c0,0.1-0.1,0.2-0.2,0.2H89c-0.1,0-0.2-0.1-0.2-0.2V14.3z"/>
	<path class="st5" d="M100.8,7c1.1,0,1.9,0.3,2.6,1c0.1,0.1,0.1,0.2,0,0.3l-0.9,0.9c-0.1,0.1-0.2,0.1-0.3,0
		c-0.4-0.4-0.9-0.6-1.5-0.6c-1.2,0-2.1,1-2.1,2.2c0,1.2,0.9,2.2,2.1,2.2c0.5,0,1.1-0.2,1.5-0.5c0.1-0.1,0.2-0.1,0.3,0l0.8,0.9
		c0.1,0.1,0.1,0.2,0,0.3c-0.7,0.7-1.7,1.1-2.6,1.1c-2.2,0-3.9-1.7-3.9-3.9C96.9,8.7,98.6,7,100.8,7z"/>
	<path class="st5" d="M104.7,7.3c0-0.1,0.1-0.2,0.2-0.2h1.3c0.1,0,0.2,0.1,0.2,0.2v4.4c0,0.8,0.6,1.4,1.3,1.4c0.8,0,1.4-0.6,1.4-1.4
		V7.3c0-0.1,0.1-0.2,0.2-0.2h1.3c0.1,0,0.2,0.1,0.2,0.2v4.5c0,1.7-1.4,3-3.1,3c-1.7,0-3.1-1.4-3.1-3V7.3z"/>
	<path class="st5" d="M116,7c2.2,0,3.9,1.8,3.9,3.9c0,2.2-1.7,3.9-3.9,3.9c-2.2,0-3.9-1.7-3.9-3.9C112.1,8.7,113.8,7,116,7z
		 M116,13.1c1.2,0,2.2-1,2.2-2.2c0-1.2-1-2.2-2.2-2.2c-1.2,0-2.2,1-2.2,2.2C113.8,12.1,114.8,13.1,116,13.1z"/>
	<path class="st5" d="M122.1,8.7h-1.6c-0.1,0-0.2-0.1-0.2-0.2V7.3c0-0.1,0.1-0.2,0.2-0.2h4.8c0.1,0,0.2,0.1,0.2,0.2v1.2
		c0,0.1-0.1,0.2-0.2,0.2h-1.6v5.8c0,0.1-0.1,0.2-0.2,0.2h-1.3c-0.1,0-0.2-0.1-0.2-0.2V8.7z"/>
	<path class="st5" d="M125.3,14.4l3.4-7.3c0-0.1,0.1-0.1,0.2-0.1h0.1c0.1,0,0.2,0.1,0.2,0.1l3.4,7.3c0.1,0.1,0,0.3-0.2,0.3h-1.2
		c-0.2,0-0.3-0.1-0.4-0.3l-0.4-0.9h-3l-0.4,0.9c-0.1,0.1-0.2,0.3-0.4,0.3h-1.2C125.4,14.7,125.3,14.6,125.3,14.4z M129.8,12.1
		l-0.8-1.8h0l-0.8,1.8H129.8z"/>
	<path class="st5" d="M133.1,13.7l0.5-0.9c0.1-0.1,0.3-0.1,0.4-0.1c0,0,0.8,0.6,1.5,0.6c0.4,0,0.8-0.3,0.8-0.7
		c0-0.5-0.4-0.8-1.1-1.1c-0.9-0.4-2.1-1.1-2.1-2.4c0-1.1,0.8-2.2,2.5-2.2c1.1,0,2,0.6,2.3,0.8c0.1,0.1,0.1,0.3,0.1,0.3L137.4,9
		c-0.1,0.1-0.3,0.2-0.4,0.1c-0.1-0.1-0.9-0.7-1.6-0.7c-0.4,0-0.7,0.3-0.7,0.6c0,0.4,0.3,0.7,1.2,1.1c0.8,0.3,2.2,1,2.2,2.5
		c0,1.1-1,2.3-2.6,2.3c-1.4,0-2.2-0.6-2.5-0.8C133,13.9,133,13.8,133.1,13.7z"/>
</g>
<g>
	<g>
		<path class="st4" d="M38.8,21.9c-0.4-0.2-0.7-0.5-0.9-0.9c-0.2-0.4-0.3-0.8-0.3-1.2s0.1-0.8,0.3-1.2c0.2-0.4,0.5-0.7,0.9-0.9
			c0.4-0.2,0.8-0.3,1.2-0.3c0.7,0,1.3,0.2,1.7,0.7l-0.6,0.6c-0.3-0.3-0.7-0.5-1.1-0.5c-0.3,0-0.5,0.1-0.8,0.2
			c-0.2,0.1-0.4,0.3-0.6,0.6c-0.1,0.2-0.2,0.5-0.2,0.8s0.1,0.6,0.2,0.8c0.1,0.2,0.3,0.4,0.6,0.6c0.2,0.1,0.5,0.2,0.8,0.2
			c0.5,0,0.9-0.2,1.2-0.6l0.6,0.6c-0.2,0.3-0.5,0.5-0.8,0.6s-0.6,0.2-1,0.2C39.5,22.3,39.1,22.2,38.8,21.9z"/>
		<path class="st4" d="M44.1,21.9c-0.4-0.2-0.6-0.5-0.9-0.9c-0.2-0.4-0.3-0.8-0.3-1.2s0.1-0.8,0.3-1.2c0.2-0.4,0.5-0.7,0.9-0.9
			c0.4-0.2,0.8-0.3,1.2-0.3s0.9,0.1,1.2,0.3c0.4,0.2,0.6,0.5,0.9,0.9c0.2,0.4,0.3,0.8,0.3,1.2s-0.1,0.8-0.3,1.2
			c-0.2,0.4-0.5,0.7-0.9,0.9s-0.8,0.3-1.2,0.3S44.4,22.2,44.1,21.9z M46.1,21.2c0.2-0.1,0.4-0.3,0.6-0.6c0.1-0.2,0.2-0.5,0.2-0.8
			c0-0.3-0.1-0.6-0.2-0.8c-0.1-0.2-0.3-0.4-0.6-0.6c-0.2-0.1-0.5-0.2-0.8-0.2c-0.3,0-0.5,0.1-0.8,0.2s-0.4,0.3-0.5,0.6
			c-0.1,0.2-0.2,0.5-0.2,0.8c0,0.3,0.1,0.6,0.2,0.8c0.1,0.2,0.3,0.4,0.5,0.6s0.5,0.2,0.8,0.2C45.6,21.4,45.8,21.4,46.1,21.2z"/>
		<path class="st4" d="M49.1,17.6h1l1.8,3.1H52L52,19.8v-2.2h0.9v4.6h-0.9L50,18.9h-0.1l0.1,0.9v2.4h-0.8V17.6z"/>
		<path class="st4" d="M57.3,18.4H56v-0.8h3.4v0.8h-1.3v3.8h-0.9V18.4z"/>
		<path class="st4" d="M61.5,21.9c-0.4-0.2-0.6-0.5-0.9-0.9c-0.2-0.4-0.3-0.8-0.3-1.2s0.1-0.8,0.3-1.2c0.2-0.4,0.5-0.7,0.9-0.9
			c0.4-0.2,0.8-0.3,1.2-0.3s0.9,0.1,1.2,0.3c0.4,0.2,0.6,0.5,0.9,0.9c0.2,0.4,0.3,0.8,0.3,1.2s-0.1,0.8-0.3,1.2
			c-0.2,0.4-0.5,0.7-0.9,0.9s-0.8,0.3-1.2,0.3S61.9,22.2,61.5,21.9z M63.5,21.2c0.2-0.1,0.4-0.3,0.6-0.6c0.1-0.2,0.2-0.5,0.2-0.8
			c0-0.3-0.1-0.6-0.2-0.8c-0.1-0.2-0.3-0.4-0.6-0.6c-0.2-0.1-0.5-0.2-0.8-0.2c-0.3,0-0.5,0.1-0.8,0.2s-0.4,0.3-0.5,0.6
			c-0.1,0.2-0.2,0.5-0.2,0.8c0,0.3,0.1,0.6,0.2,0.8c0.1,0.2,0.3,0.4,0.5,0.6s0.5,0.2,0.8,0.2C63,21.4,63.3,21.4,63.5,21.2z"/>
		<path class="st4" d="M66.6,17.6h1.5c0.5,0,0.9,0.1,1.2,0.3c0.4,0.2,0.6,0.5,0.8,0.8s0.3,0.7,0.3,1.2s-0.1,0.8-0.3,1.2
			c-0.2,0.3-0.5,0.6-0.8,0.8c-0.4,0.2-0.8,0.3-1.2,0.3h-1.5V17.6z M68.1,21.3c0.5,0,0.9-0.1,1.1-0.4s0.4-0.6,0.4-1.1
			s-0.1-0.8-0.4-1.1s-0.6-0.4-1.1-0.4h-0.6v2.9H68.1z"/>
		<path class="st4" d="M73,17.6h1l1.7,4.6h-1l-0.4-1.1h-1.7l-0.4,1.1h-1L73,17.6z M74.1,20.3l-0.4-1.1l-0.2-0.5h-0.1l-0.2,0.5
			l-0.4,1.1H74.1z"/>
		<path class="st4" d="M77.3,21.9c-0.3-0.2-0.5-0.5-0.6-1l0.8-0.3c0.1,0.2,0.2,0.4,0.3,0.6c0.2,0.1,0.3,0.2,0.6,0.2
			c0.2,0,0.4,0,0.5-0.1s0.2-0.2,0.2-0.4c0-0.2-0.1-0.3-0.2-0.4c-0.1-0.1-0.4-0.2-0.7-0.3L77.9,20c-0.3-0.1-0.5-0.3-0.8-0.5
			c-0.2-0.2-0.3-0.5-0.3-0.8c0-0.2,0.1-0.5,0.2-0.7s0.3-0.4,0.5-0.5s0.5-0.2,0.8-0.2c0.4,0,0.7,0.1,1,0.3c0.2,0.2,0.4,0.4,0.5,0.7
			L79,18.8c0-0.1-0.1-0.3-0.2-0.4s-0.3-0.1-0.5-0.1c-0.2,0-0.3,0-0.5,0.1c-0.1,0.1-0.2,0.2-0.2,0.3c0,0.1,0.1,0.3,0.2,0.3
			c0.1,0.1,0.3,0.2,0.6,0.3l0.3,0.1c0.4,0.1,0.7,0.3,0.9,0.5c0.2,0.2,0.3,0.5,0.3,0.9c0,0.3-0.1,0.6-0.2,0.8
			c-0.2,0.2-0.4,0.4-0.6,0.5c-0.2,0.1-0.5,0.2-0.7,0.2C78,22.3,77.6,22.1,77.3,21.9z"/>
		<path class="st4" d="M83.5,17.6h0.9v3.8h1.9v0.8h-2.8V17.6z"/>
		<path class="st4" d="M89,17.6h1l1.7,4.6h-1l-0.4-1.1h-1.7l-0.4,1.1h-1L89,17.6z M90,20.3l-0.4-1.1l-0.2-0.5h-0.1l-0.2,0.5
			l-0.4,1.1H90z"/>
		<path class="st4" d="M93.2,21.9c-0.3-0.2-0.5-0.5-0.6-1l0.8-0.3c0.1,0.2,0.2,0.4,0.3,0.6c0.2,0.1,0.3,0.2,0.6,0.2
			c0.2,0,0.4,0,0.5-0.1s0.2-0.2,0.2-0.4c0-0.2-0.1-0.3-0.2-0.4c-0.1-0.1-0.4-0.2-0.7-0.3L93.8,20c-0.3-0.1-0.5-0.3-0.8-0.5
			c-0.2-0.2-0.3-0.5-0.3-0.8c0-0.2,0.1-0.5,0.2-0.7s0.3-0.4,0.5-0.5s0.5-0.2,0.8-0.2c0.4,0,0.7,0.1,1,0.3c0.2,0.2,0.4,0.4,0.5,0.7
			l-0.8,0.3c0-0.1-0.1-0.3-0.2-0.4s-0.3-0.1-0.5-0.1c-0.2,0-0.3,0-0.5,0.1c-0.1,0.1-0.2,0.2-0.2,0.3c0,0.1,0.1,0.3,0.2,0.3
			c0.1,0.1,0.3,0.2,0.6,0.3l0.3,0.1c0.4,0.1,0.7,0.3,0.9,0.5c0.2,0.2,0.3,0.5,0.3,0.9c0,0.3-0.1,0.6-0.2,0.8
			c-0.2,0.2-0.4,0.4-0.6,0.5c-0.2,0.1-0.5,0.2-0.7,0.2C93.9,22.3,93.5,22.1,93.2,21.9z"/>
		<path class="st4" d="M100.1,18.4h-1.3v-0.8h3.4v0.8H101v3.8h-0.9V18.4z"/>
		<path class="st4" d="M104.5,17.6h1l1.7,4.6h-1l-0.4-1.1h-1.7l-0.4,1.1h-1L104.5,17.6z M105.5,20.3l-0.4-1.1l-0.2-0.5h-0.1
			l-0.2,0.5l-0.4,1.1H105.5z"/>
		<path class="st4" d="M108.4,17.6h1.7c0.3,0,0.6,0.1,0.8,0.2s0.4,0.3,0.5,0.5c0.1,0.2,0.2,0.5,0.2,0.7c0,0.3-0.1,0.6-0.3,0.8
			s-0.4,0.4-0.7,0.5l0,0l1.2,1.8v0.1h-1l-1.2-1.7h-0.4v1.7h-0.9V17.6z M110.1,19.6c0.2,0,0.4-0.1,0.5-0.2c0.1-0.1,0.2-0.3,0.2-0.5
			c0-0.2-0.1-0.3-0.2-0.4s-0.3-0.2-0.5-0.2h-0.8v1.3H110.1z"/>
		<path class="st4" d="M113.3,22c-0.3-0.2-0.5-0.5-0.6-0.8l0.8-0.3c0.1,0.2,0.1,0.4,0.3,0.5c0.1,0.1,0.3,0.2,0.5,0.2
			c0.2,0,0.4-0.1,0.5-0.2c0.1-0.1,0.2-0.3,0.2-0.5v-3.1h0.9v3.1c0,0.3-0.1,0.6-0.2,0.8s-0.3,0.4-0.5,0.5s-0.5,0.2-0.8,0.2
			C113.8,22.3,113.5,22.2,113.3,22z"/>
		<path class="st4" d="M117.3,17.6h2.9v0.8h-2v1.1h1.8v0.8h-1.8v1.1h2v0.8h-2.9V17.6z"/>
		<path class="st4" d="M122.7,18.4h-1.3v-0.8h3.4v0.8h-1.3v3.8h-0.9V18.4z"/>
		<path class="st4" d="M127,17.6h1l1.7,4.6h-1l-0.4-1.1h-1.7l-0.4,1.1h-1L127,17.6z M128.1,20.3l-0.4-1.1l-0.2-0.5h-0.1l-0.2,0.5
			l-0.4,1.1H128.1z"/>
		<path class="st4" d="M131.3,21.9c-0.3-0.2-0.5-0.5-0.6-1l0.8-0.3c0.1,0.2,0.2,0.4,0.3,0.6c0.2,0.1,0.3,0.2,0.6,0.2
			c0.2,0,0.4,0,0.5-0.1s0.2-0.2,0.2-0.4c0-0.2-0.1-0.3-0.2-0.4c-0.1-0.1-0.4-0.2-0.7-0.3l-0.3-0.1c-0.3-0.1-0.5-0.3-0.8-0.5
			c-0.2-0.2-0.3-0.5-0.3-0.8c0-0.2,0.1-0.5,0.2-0.7s0.3-0.4,0.5-0.5s0.5-0.2,0.8-0.2c0.4,0,0.7,0.1,1,0.3c0.2,0.2,0.4,0.4,0.5,0.7
			l-0.8,0.3c0-0.1-0.1-0.3-0.2-0.4s-0.3-0.1-0.5-0.1c-0.2,0-0.3,0-0.5,0.1c-0.1,0.1-0.2,0.2-0.2,0.3c0,0.1,0.1,0.3,0.2,0.3
			c0.1,0.1,0.3,0.2,0.6,0.3l0.3,0.1c0.4,0.1,0.7,0.3,0.9,0.5c0.2,0.2,0.3,0.5,0.3,0.9c0,0.3-0.1,0.6-0.2,0.8
			c-0.2,0.2-0.4,0.4-0.6,0.5c-0.2,0.1-0.5,0.2-0.7,0.2C131.9,22.3,131.6,22.1,131.3,21.9z"/>
	</g>
</g>
<g>
	<g>
		<path class="st5" d="M258.2,7.3c0-0.1,0.1-0.2,0.2-0.2h2.6c1.3,0,2.4,1.1,2.4,2.4c0,1.4-1.1,2.5-2.4,2.5h-1.1v2.6
			c0,0.1-0.1,0.2-0.2,0.2h-1.3c-0.1,0-0.2-0.1-0.2-0.2V7.3z M260.9,10.4c0.5,0,0.9-0.4,0.9-0.9c0-0.5-0.4-0.8-0.9-0.8h-1v1.7H260.9z
			"/>
		<path class="st5" d="M264.5,7.3c0-0.1,0.1-0.2,0.2-0.2h3.3c1.3,0,2.4,1.1,2.4,2.4c0,1-0.7,1.8-1.6,2.2l1.5,2.8
			c0.1,0.1,0,0.3-0.2,0.3h-1.4c-0.1,0-0.2-0.1-0.2-0.1l-1.4-2.9h-0.8v2.8c0,0.1-0.1,0.2-0.2,0.2h-1.3c-0.1,0-0.2-0.1-0.2-0.2V7.3z
			 M267.9,10.3c0.4,0,0.8-0.4,0.8-0.9s-0.4-0.8-0.8-0.8h-1.6v1.7H267.9z"/>
		<path class="st5" d="M275.2,7c2.2,0,3.9,1.8,3.9,3.9c0,2.2-1.7,3.9-3.9,3.9c-2.2,0-3.9-1.7-3.9-3.9C271.3,8.7,273,7,275.2,7z
			 M275.2,13.1c1.2,0,2.2-1,2.2-2.2c0-1.2-1-2.2-2.2-2.2c-1.2,0-2.2,1-2.2,2.2C273,12.1,274,13.1,275.2,13.1z"/>
		<path class="st5" d="M281.2,7.2c0-0.1,0.1-0.2,0.2-0.2h0.2c0.1,0,0.2,0,0.2,0.1l2.5,4.7h0l2.5-4.7C286.9,7,287,7,287,7h0.2
			c0.1,0,0.2,0.1,0.2,0.2l1.2,7.3c0,0.1-0.1,0.2-0.2,0.2h-1.3c-0.1,0-0.2-0.1-0.2-0.2l-0.5-3.4h0l-1.8,3.5c0,0.1-0.1,0.1-0.2,0.1
			h-0.2c-0.1,0-0.2-0.1-0.2-0.1l-1.8-3.5h0l-0.5,3.4c0,0.1-0.1,0.2-0.2,0.2h-1.3c-0.1,0-0.2-0.1-0.2-0.2L281.2,7.2z"/>
		<path class="st5" d="M293.4,7c2.2,0,3.9,1.8,3.9,3.9c0,2.2-1.7,3.9-3.9,3.9c-2.2,0-3.9-1.7-3.9-3.9C289.5,8.7,291.2,7,293.4,7z
			 M293.4,13.1c1.2,0,2.2-1,2.2-2.2c0-1.2-1-2.2-2.2-2.2c-1.2,0-2.2,1-2.2,2.2C291.2,12.1,292.2,13.1,293.4,13.1z"/>
		<path class="st5" d="M298.2,13.7l0.5-0.9c0.1-0.1,0.3-0.1,0.4-0.1c0,0,0.8,0.6,1.5,0.6c0.4,0,0.8-0.3,0.8-0.7
			c0-0.5-0.4-0.8-1.1-1.1c-0.9-0.4-2.1-1.1-2.1-2.4c0-1.1,0.8-2.2,2.5-2.2c1.1,0,2,0.6,2.3,0.8c0.1,0.1,0.1,0.3,0.1,0.3L302.5,9
			c-0.1,0.1-0.3,0.2-0.4,0.1c-0.1-0.1-0.9-0.7-1.6-0.7c-0.4,0-0.7,0.3-0.7,0.6c0,0.4,0.3,0.7,1.2,1.1c0.9,0.3,2.2,1,2.2,2.5
			c0,1.1-1,2.3-2.6,2.3c-1.4,0-2.2-0.6-2.5-0.8C298.1,13.9,298.1,13.8,298.2,13.7z"/>
		<path class="st5" d="M310.4,7c1.1,0,1.9,0.3,2.6,1c0.1,0.1,0.1,0.2,0,0.3l-0.8,0.9c-0.1,0.1-0.2,0.1-0.3,0
			c-0.4-0.4-0.9-0.6-1.5-0.6c-1.2,0-2.1,1-2.1,2.2c0,1.2,0.9,2.2,2.1,2.2c0.5,0,1.1-0.2,1.5-0.5c0.1-0.1,0.2-0.1,0.3,0l0.8,0.9
			c0.1,0.1,0.1,0.2,0,0.3c-0.7,0.7-1.7,1.1-2.6,1.1c-2.2,0-3.9-1.7-3.9-3.9C306.4,8.7,308.2,7,310.4,7z"/>
		<path class="st5" d="M317.6,7c2.2,0,3.9,1.8,3.9,3.9c0,2.2-1.7,3.9-3.9,3.9c-2.2,0-3.9-1.7-3.9-3.9C313.7,8.7,315.5,7,317.6,7z
			 M317.6,13.1c1.2,0,2.2-1,2.2-2.2c0-1.2-1-2.2-2.2-2.2c-1.2,0-2.2,1-2.2,2.2C315.5,12.1,316.5,13.1,317.6,13.1z"/>
		<path class="st5" d="M322.9,7.2c0-0.1,0.1-0.2,0.2-0.2h0.3l4.3,4.2h0V7.3c0-0.1,0.1-0.2,0.2-0.2h1.3c0.1,0,0.2,0.1,0.2,0.2v7.3
			c0,0.1-0.1,0.2-0.2,0.2H329c0,0-0.1,0-0.1-0.1l-4.3-4.3h0v4.1c0,0.1-0.1,0.2-0.2,0.2h-1.3c-0.1,0-0.2-0.1-0.2-0.2L322.9,7.2z"/>
		<path class="st5" d="M333.7,7.3c0-0.1,0.1-0.2,0.2-0.2h2.5c1.3,0,2.3,0.9,2.3,2c0,0.8-0.8,1.4-1.3,1.7c0.6,0.2,1.5,0.8,1.5,1.8
			c0,1.2-1.1,2.1-2.4,2.1h-2.7c-0.1,0-0.2-0.1-0.2-0.2V7.3z M336.3,10.2c0.4,0,0.8-0.3,0.8-0.8c0-0.4-0.3-0.7-0.8-0.7h-0.8v1.5
			H336.3z M336.4,13.2c0.4,0,0.8-0.3,0.8-0.8c0-0.4-0.5-0.8-0.9-0.8h-0.9v1.6H336.4z"/>
		<path class="st5" d="M339.4,14.4l3.4-7.3c0-0.1,0.1-0.1,0.2-0.1h0.1c0.1,0,0.2,0.1,0.2,0.1l3.4,7.3c0.1,0.1,0,0.3-0.2,0.3h-1.2
			c-0.2,0-0.3-0.1-0.4-0.3l-0.4-0.9h-3l-0.4,0.9c-0.1,0.1-0.2,0.3-0.4,0.3h-1.2C339.4,14.7,339.3,14.6,339.4,14.4z M343.9,12.1
			l-0.8-1.8h0l-0.8,1.8H343.9z"/>
		<path class="st5" d="M347.6,7.2c0-0.1,0.1-0.2,0.2-0.2h0.3l4.3,4.2h0V7.3c0-0.1,0.1-0.2,0.2-0.2h1.3c0.1,0,0.2,0.1,0.2,0.2v7.3
			c0,0.1-0.1,0.2-0.2,0.2h-0.2c0,0-0.1,0-0.1-0.1l-4.3-4.3h0v4.1c0,0.1-0.1,0.2-0.2,0.2h-1.3c-0.1,0-0.2-0.1-0.2-0.2L347.6,7.2z"/>
		<path class="st5" d="M359.4,7c1.1,0,1.9,0.3,2.6,1c0.1,0.1,0.1,0.2,0,0.3l-0.8,0.9c-0.1,0.1-0.2,0.1-0.3,0
			c-0.4-0.4-0.9-0.6-1.5-0.6c-1.2,0-2.1,1-2.1,2.2c0,1.2,0.9,2.2,2.1,2.2c0.5,0,1.1-0.2,1.5-0.5c0.1-0.1,0.2-0.1,0.3,0l0.8,0.9
			c0.1,0.1,0.1,0.2,0,0.3c-0.7,0.7-1.7,1.1-2.6,1.1c-2.2,0-3.9-1.7-3.9-3.9C355.5,8.7,357.2,7,359.4,7z"/>
		<path class="st5" d="M366.7,7c2.2,0,3.9,1.8,3.9,3.9c0,2.2-1.7,3.9-3.9,3.9c-2.2,0-3.9-1.7-3.9-3.9C362.8,8.7,364.5,7,366.7,7z
			 M366.7,13.1c1.2,0,2.2-1,2.2-2.2c0-1.2-1-2.2-2.2-2.2c-1.2,0-2.2,1-2.2,2.2C364.5,12.1,365.5,13.1,366.7,13.1z"/>
		<path class="st5" d="M371.5,13.7l0.5-0.9c0.1-0.1,0.3-0.1,0.4-0.1c0,0,0.8,0.6,1.5,0.6c0.4,0,0.8-0.3,0.8-0.7
			c0-0.5-0.4-0.8-1.1-1.1c-0.9-0.4-2.1-1.1-2.1-2.4c0-1.1,0.8-2.2,2.5-2.2c1.1,0,2,0.6,2.3,0.8c0.1,0.1,0.1,0.3,0.1,0.3L375.8,9
			c-0.1,0.1-0.3,0.2-0.4,0.1c-0.1-0.1-0.9-0.7-1.6-0.7c-0.4,0-0.7,0.3-0.7,0.6c0,0.4,0.3,0.7,1.2,1.1c0.9,0.3,2.2,1,2.2,2.5
			c0,1.1-1,2.3-2.6,2.3c-1.4,0-2.2-0.6-2.5-0.8C371.4,13.9,371.4,13.8,371.5,13.7z"/>
	</g>
</g>
<g>
	<g>
		<g>
			<g>
				<path class="st6" d="M357.7,28.5c1.7-0.1,3.4,1.2,3.4,3.3c0,1.8-1.6,3.3-3.4,3.3c-1.8,0-3.4-1.5-3.4-3.3
					C354.3,30,355.8,28.5,357.7,28.5z"/>
				<path class="st7" d="M356.9,33.4c-0.6-0.2-1.2-0.4-1.7-0.8c0.1-0.3,0.3-0.2,0.5-0.3c0.2,0,0.3-0.1,0.5-0.1
					c0.6-0.4,1.4-0.3,2-0.6c0.1,0,0.2-0.1,0.3-0.1c0.5-0.1,1.1-0.3,1.6-0.2c0.1,0,0.4-0.1,0.2,0.1c-0.3,0.5-0.6,0.9-1,1.3
					c-0.4,0,0-0.2-0.1-0.3c-0.1,0.2-0.1,0.3,0,0.5c-0.9,1.1-0.9,1.1-2.2,0.6c-0.2-0.2,0-0.3,0-0.5c0-0.1,0.3-0.2,0.3-0.3
					c0-0.1,0-0.2,0.1-0.4c-0.2,0-0.2,0-0.2,0.3C357.3,32.9,357.1,33.2,356.9,33.4z"/>
				<path class="st8" d="M355.9,31c-0.2-0.9-0.2-0.6,0.5-0.8c0.6-0.2,1.2-0.3,1.8-0.5c0.5-0.2,0.8-0.1,0.9,0.5c0,0,0,0.1,0,0.2
					c-0.1,0.2-0.3,0.3-0.5,0.2c-0.2,0-0.5-0.1-0.6,0c-0.5,0.5-1.2,0.2-1.8,0.5C356.1,31.1,356,31.1,355.9,31z"/>
				<path class="st9" d="M355.1,31.3c0.1,0,0.3,0,0.3-0.1c0.4-0.1,0.8,0,1.1-0.3c0.3-0.2,0.6,0.1,0.8,0.4c0.1,0.2,0.3,0.3,0.2,0.5
					c-0.6,0-1.1,0.4-1.7,0.2c-0.1,0.1-0.2,0.2-0.3,0.3c-0.2,0.1-0.5,0.2-0.6-0.2c0-0.2-0.1-0.4-0.1-0.6
					C354.8,31.3,355,31.3,355.1,31.3z"/>
				<path class="st10" d="M360.2,30.2c0.3,0.3,0.3,0.6,0,0.9c-0.4,0.4-0.8,0.3-1.2,0.1c-0.1-0.1-0.1-0.2-0.1-0.2
					c-0.1-0.2,0-0.4,0.2-0.6C359.4,30.1,359.8,30,360.2,30.2z"/>
				<path class="st11" d="M357.3,31.4c-0.3-0.3-0.5-0.8-1-0.1c-0.1,0.1-0.5,0-0.8-0.1c0.1-0.2,0.3-0.1,0.5-0.2
					c0.4,0,0.8-0.5,1.3-0.1c0,0,0.2-0.1,0.2-0.2c0.4-0.3,0.7-0.5,1.2-0.2c0,0-0.1,0.1-0.1,0.1c-0.5,0.1-0.9,0.2-1.1,0.7
					C357.5,31.4,357.4,31.4,357.3,31.4z"/>
				<path class="st12" d="M356.9,33.4c0.1-0.2,0-0.4,0.2-0.6c0.2-0.2,0.1-0.4-0.3-0.2c0.4-0.3,0.6-0.5,1-0.6
					c-0.3,0.5-0.5,0.9-0.7,1.4c-0.1,0.1-0.1,0.4-0.4,0.4C356.6,33.7,356.8,33.6,356.9,33.4z"/>
				<path class="st11" d="M355.1,31.3c-0.4,0.4,0,0.7,0,1c0,0.1,0.3,0.1,0.4-0.1c0-0.2,0.1-0.3,0.3-0.3c0,0,0,0,0,0.1
					c0,0.2-0.1,0.3-0.1,0.4c-0.2,0.1-0.4,0.1-0.5,0.2c-0.4-0.3-0.3-0.8-0.4-1.2C354.7,31.2,355,31.3,355.1,31.3z"/>
				<path class="st13" d="M359.1,31.1c0.4,0.3,0.8,0.2,1.1,0c0,0.1,0,0.1,0,0.2c-0.5,0.2-1.1,0.2-1.7,0.3
					C358.6,31.4,358.8,31.2,359.1,31.1z"/>
				<path class="st14" d="M360.2,30.2c-0.4-0.1-0.8,0-1.1,0.2c-0.1,0-0.1-0.1,0-0.1c0,0,0,0,0-0.1C359.5,30.1,359.8,29.8,360.2,30.2
					z"/>
				<path class="st15" d="M359.3,32.9c-0.3-0.3,0-0.5,0.1-0.8c0.2,0.2-0.2,0.4,0,0.6C359.4,32.8,359.4,32.9,359.3,32.9z"/>
				<path class="st16" d="M359.1,31.1c-0.1,0.3-0.3,0.4-0.6,0.5c0,0-0.1,0.1-0.1,0.1c-0.3,0.1-0.6,0.1-0.8,0.1
					c0-0.2-0.2-0.3-0.2-0.4c0.2-0.6,0.6-0.9,1.2-0.9c0.2,0.1,0.4,0,0.2,0.4c-0.2,0.1-0.5,0-0.6,0.3c0.1-0.2,0.4-0.3,0.6-0.3
					c0.1,0,0.2,0,0.3,0.1C359,31,359,31.1,359.1,31.1z"/>
				<path class="st11" d="M357.5,31.8c0.3-0.2,0.6-0.1,0.8-0.1c-0.4,0.1-0.8,0.3-1.3,0.3c-0.3,0-0.6,0.3-0.9,0.3
					c-0.3,0.1-0.3-0.2-0.3-0.3c0,0,0,0,0-0.1c0.1-0.1,0.3-0.2,0.3-0.1c0.1,0.6,0.4,0.2,0.6,0.1C357,31.7,357.3,31.9,357.5,31.8z"/>
				<path class="st17" d="M358.1,32.8c0.2,0.1,0.4-0.1,0.4,0.1c-0.1,0.3-0.4,0.3-0.7,0.4c-0.1,0-0.2,0-0.2-0.1
					C357.7,32.9,357.8,32.7,358.1,32.8z"/>
				<path class="st18" d="M355.9,32c0.1,0.1,0.1,0.3,0.3,0.3c-0.1,0-0.3,0.1-0.4,0.1C355.6,32.2,355.7,32.1,355.9,32z"/>
				<path class="st19" d="M359,30.9c-0.1,0-0.2,0-0.3,0c0,0,0,0,0-0.1c0,0,0,0,0,0c0.2-0.2-0.1-0.2-0.2-0.3c0.1,0,0.1,0,0.2,0
					c0.2,0,0.3-0.2,0.4-0.2c0,0,0,0.1,0,0.1C359,30.6,358.9,30.7,359,30.9z"/>
				<path class="st20" d="M359.7,31c-0.2,0-0.3-0.2-0.3-0.4c0-0.2,0.1-0.3,0.3-0.3c0.2,0,0.3,0.1,0.3,0.3
					C360,30.9,359.9,31,359.7,31z"/>
				<path class="st21" d="M358.6,30.9C358.6,30.9,358.6,30.9,358.6,30.9c-0.1,0.1-0.4,0.1-0.3,0.3c0,0.1,0.1,0.2-0.1,0.2
					c-0.2,0-0.3-0.1-0.3-0.3c0-0.1,0-0.3,0.2-0.3C358.2,30.8,358.4,30.9,358.6,30.9z"/>
			</g>
		</g>
	</g>
	<path class="st22" d="M317.6,31.6c0-0.6,0-1.3,0-1.9c0-0.4,0.1-0.6,0.5-0.6c2.4,0,4.7,0,7.1,0c0.4,0,0.5,0.2,0.5,0.5
		c0,1.4,0,2.8,0,4.2c0,0.4-0.2,0.5-0.5,0.5c-2.3,0-4.6,0-6.9,0c-0.7,0-0.7,0-0.7-0.8c0.3-0.1,0.6,0,0.9,0.2c0.3,0.3,0.7,0.3,0.9,0.1
		c0.2-0.2,0.2-0.6-0.1-0.8c-0.3-0.3-0.6-0.2-0.8,0.1c-0.2,0.3-0.5,0.4-0.8,0.3c0-0.3,0-0.7,0-1c0.1-0.1,0.3,0,0.4,0
		c0.3,0,0.5-0.1,0.5-0.4c0-0.3-0.2-0.5-0.5-0.4C317.9,31.6,317.7,31.7,317.6,31.6z"/>
	<path class="st23" d="M283.6,32.9c-1.2,0.9-2.7,0.8-3.7-0.3c-1-1-1.1-2.6-0.3-3.7c0.9-1.2,2.4-1.5,3.7-0.8c0.1,0.1,0.2,0.1,0.3,0.2
		c0,0.1,0,0.1,0,0.2c0,0.2-0.2,0.3-0.3,0.4c-0.8,1-0.8,2.4,0,3.4C283.4,32.5,283.6,32.6,283.6,32.9z"/>
	<path class="st24" d="M283.6,28.4C283.5,28.4,283.5,28.4,283.6,28.4c0.1-0.1,0.3-0.2,0.4-0.2c1.3-0.7,2.7-0.4,3.7,0.7
		c0.9,1.1,0.8,2.6-0.1,3.6c-0.9,1.1-2.4,1.3-3.7,0.5c-0.1,0-0.1-0.1-0.2-0.2c0-0.2,0.2-0.4,0.3-0.5c0.9-1.3,0.9-2.5-0.1-3.6
		C283.7,28.6,283.6,28.5,283.6,28.4z"/>
	<path class="st25" d="M271,33.8c-0.3,0-0.5,0-0.7,0c-0.1,0-0.3,0-0.3-0.2c0-0.3-0.2-0.5-0.5-0.4c-0.4,0.1-0.9-0.3-1.1,0.3
		c-0.1,0.3-0.3,0.3-1.2,0.2c0.5-1.2,1.1-2.5,1.6-3.6c0.2-0.5,0.7-0.3,1.1-0.3c0.3,0,0.3,0.3,0.3,0.5C270.5,31.5,270.8,32.7,271,33.8
		z"/>
	<path class="st26" d="M257.8,29.9c0.6,0,1.2,0,1.8,0c0.3,0,0.4,0.3,0.5,0.6c0.1,0.7,0.3,1.3,0.4,2.1c0.3-0.8,0.6-1.5,0.9-2.2
		c0.2-0.4,0.7-0.6,1.1-0.5c0.2,0.1,0.1,0.2,0.1,0.3c-0.5,1.1-1,2.3-1.5,3.4c-0.2,0.5-0.6,0.2-1,0.3c-0.3,0.1-0.4-0.2-0.4-0.4
		c-0.2-0.8-0.5-1.6-0.6-2.4c-0.1-0.6-0.5-0.9-1-1C258.1,30,257.9,30.1,257.8,29.9z"/>
	<path class="st27" d="M266.5,29.7c0.2,0.1,0.5,0.1,0.7,0.2c0.4,0.1,0.1,0.4,0.1,0.6c0,0.3-0.2,0.2-0.3,0.1
		c-0.3-0.1-0.6-0.1-0.9-0.1c-0.2,0-0.3,0.1-0.4,0.3c0,0.2,0.1,0.3,0.2,0.3c0.2,0.1,0.5,0.3,0.7,0.4c0.7,0.5,0.7,1.3,0.1,1.8
		c-0.5,0.5-1.8,0.6-2.4,0.3c-0.3-0.2,0-0.4,0-0.7c0-0.2,0.1-0.2,0.3-0.2c0.4,0.1,0.7,0.2,1.1,0.1c0.2-0.1,0.3-0.1,0.3-0.3
		c0-0.2-0.1-0.3-0.2-0.3c-0.2-0.1-0.4-0.2-0.6-0.3c-0.4-0.2-0.7-0.5-0.6-1c0-0.5,0.3-0.8,0.8-1C265.7,29.8,266.1,29.8,266.5,29.7z"
		/>
	<path class="st28" d="M305.3,32.9c0.2,0.5,0.1,1,0.1,1.6c0,0.2-0.2,0.2-0.3,0.2c-1.7,0-3.4,0-5.1,0c-0.2,0-0.3-0.1-0.3-0.3
		c0-0.2,0-0.5,0-0.7c0.2-0.2,0.4-0.1,0.6-0.1c1,0.1,1.8,0,2.6-0.7C303.8,32.8,304.6,32.8,305.3,32.9z"/>
	<path class="st29" d="M283.6,28.4c0.7,0.3,1.3,1.5,1.2,2.4c-0.1,0.8-0.4,1.5-1.1,2.1c0,0,0,0,0,0s0,0,0,0c-0.5-0.6-1-1.2-1-2
		C282.5,29.9,282.9,29.1,283.6,28.4z"/>
	<path class="st30" d="M302.4,30.9c-0.3,0-0.6,0-0.8,0c-0.2,0-0.3,0-0.4,0.2c0.1,0.2,0,0.3-0.1,0.3c-0.2,0.1-0.1-0.2-0.2-0.2l0,0
		c0,0-0.1-0.1-0.1-0.1c-0.2-0.1-0.4-0.1-0.6,0c-0.1,0.1-0.2,0.2-0.3,0.2c-0.2-0.7-0.1-1.5-0.1-2.2c0-0.2,0.2-0.2,0.3-0.2
		c0.7,0,1.4,0,2,0C302.8,29.4,302.9,30.3,302.4,30.9z"/>
	<path class="st31" d="M262.9,33.8c-0.5,0.1-0.6-0.1-0.4-0.5c0.3-1,0.5-2,0.7-3c0.1-0.4,0.7-0.7,1-0.5c0.1,0.1,0.1,0.2,0.1,0.3
		c-0.2,1.1-0.5,2.3-0.7,3.4C263.4,34,263.1,33.8,262.9,33.8z"/>
	<path class="st32" d="M303.1,33c-0.8,0.8-1.8,0.8-2.8,0.7c-0.2,0-0.3,0-0.5-0.1c0-0.5,0-1,0-1.5c0-0.4,0.3-0.4,0.5-0.4
		c0.7,0.1,1.5,0.1,2.2,0c0.4,0,0.8,0,1.2,0.1c0.1,0.1,0.2,0.1,0.1,0.3c-0.7,0.2-1.4,0.1-2,0.1c-0.1,0-0.3,0-0.4,0
		c-0.2,0-0.3,0.1-0.3,0.3c0,0.2,0.1,0.4,0.3,0.4c0.4,0,0.7,0.1,1.1-0.1C302.7,32.6,303,32.7,303.1,33z"/>
	<path class="st33" d="M303.8,32c0-0.1-0.1-0.1-0.1-0.2c0.3-0.2,0.7,0,1,0c0.4,0,0.4-0.2,0.4-0.4c0-0.2,0.2-0.5-0.4-0.4
		c-0.2,0.1-0.6,0-0.8-0.1c-0.2-0.6-0.3-1.3-0.1-1.9c0.5,0,1.2-0.2,1.5,0.1c0.3,0.3,0.1,1,0.1,1.5c0,0.5,0.2,1.1-0.1,1.6
		c-0.1,0.1-0.1,0.1-0.2,0.1c-0.1,0-0.3,0-0.4,0c-0.1,0-0.2,0-0.2,0c-0.1,0-0.2,0-0.2,0C304.1,32.1,303.9,32.1,303.8,32z"/>
	<path class="st34" d="M303.8,29c0.1,0.6,0.1,1.3,0.1,1.9c-0.5,0-1,0-1.5,0c0.3-0.7,0.2-1.3-0.2-1.9C302.7,29,303.3,29,303.8,29z"/>
	<path class="st35" d="M303.8,32c0.1,0,0.3,0,0.4,0.1c0,0.2-0.1,0.3-0.3,0.3c-0.2,0.2,0.1,0.2,0.2,0.3c0.1,0.1,0.1,0.1,0.2,0
		c0.1-0.1,0.2-0.1,0.4,0c0.1,0,0.2,0,0.4,0c0.1,0,0.3,0,0.3,0.1c0,0,0,0.1,0,0.1c-0.6,0.2-1.3,0.1-1.9,0.1c-0.1,0-0.2,0-0.3,0.1
		c-0.5-0.3-0.9,0.1-1.4,0c-0.2-0.1-0.6,0.1-0.7-0.2c-0.2-0.5,0-0.8,0.5-0.8C302.2,32,303,32,303.8,32z"/>
	<path class="st36" d="M317.6,33.4c0.3,0,0.5-0.1,0.7-0.4c0.1-0.3,0.4-0.5,0.8-0.4c0.4,0.1,0.6,0.4,0.6,0.7c0,0.3-0.1,0.6-0.4,0.7
		c-0.4,0.1-0.7,0.1-0.9-0.3C318.2,33.5,317.9,33.5,317.6,33.4C317.6,33.5,317.6,33.4,317.6,33.4z"/>
	<path class="st36" d="M317.6,31.6c0.6-0.3,1-0.1,1.1,0.4c0,0.2-0.1,0.4-0.2,0.6c-0.3,0.2-0.6,0.1-0.8-0.1
		C317.6,32.1,317.6,31.9,317.6,31.6z"/>
	<path class="st37" d="M304.7,31.5C304.7,31.4,304.6,31.4,304.7,31.5c-0.3,0.4-0.7,0-1,0.2c-0.2,0.1-0.4,0-0.4-0.2
		c0-0.3,0.1-0.4,0.4-0.4c0,0.1-0.2,0.1-0.2,0.2c-0.1,0.1-0.1,0.2,0,0.2c0.1,0.1,0.2,0,0.2-0.1c0.2-0.6,0.4-0.4,0.6,0.1
		c0.2-0.1,0-0.4,0.2-0.4C304.7,31,304.7,31.2,304.7,31.5C304.8,31.4,304.7,31.4,304.7,31.5z"/>
	<path class="st38" d="M280.1,35.2c-0.3-0.1,0-0.6-0.3-0.5c-0.3,0,0,0.4-0.3,0.5c-0.1-0.3-0.2-0.6,0-0.7c0.3-0.1,0.7-0.1,0.9,0
		c0.3,0.1,0.1,0.5,0.2,0.7c-0.2,0-0.2-0.1-0.2-0.2c0-0.1,0.1-0.3-0.1-0.3c-0.2,0-0.2,0.2-0.2,0.4C280.2,35,280.2,35.1,280.1,35.2z"
		/>
	<path class="st39" d="M287.7,34.1c0.2,0.3,0.1,0.5,0.1,0.8c0,0.2,0,0.3-0.3,0.4c-0.3,0-0.4-0.1-0.5-0.3c-0.1-0.2,0.1-0.5,0.3-0.5
		C287.7,34.5,287.6,34.3,287.7,34.1z"/>
	<path class="st39" d="M281.4,35.2c-0.4,0-0.5-0.1-0.5-0.4c0-0.2,0.1-0.4,0.4-0.4c0.2,0,0.5,0,0.4,0.4
		C281.6,35,281.7,35.3,281.4,35.2z"/>
	<path class="st40" d="M286.1,34.4c0.3,0,0.2,0.3,0.2,0.5c0,0.4-0.3,0.3-0.4,0.3c-0.3,0-0.4-0.2-0.4-0.4
		C285.5,34.5,285.7,34.4,286.1,34.4z"/>
	<path class="st41" d="M299.9,31.4c0.1-0.1,0.2-0.2,0.2-0.3c0.2,0.1,0.5-0.1,0.8,0.1c0,0,0,0.1,0,0.1c-0.2,0.1,0,0.4-0.2,0.4
		c-0.3,0-0.5-0.1-0.8,0C299.9,31.5,299.9,31.4,299.9,31.4z"/>
	<path class="st42" d="M284,35.1c-0.3,0.1-0.6,0.1-0.6-0.3c0-0.2,0.1-0.4,0.3-0.4c0.2-0.1,0.4,0.1,0.4,0.3c0.1,0.4-0.3,0.1-0.4,0.3
		C283.6,35.1,283.9,34.9,284,35.1z"/>
	<path class="st43" d="M281.8,35c0.1,0,0.2,0,0.4,0c-0.1-0.2-0.5-0.1-0.3-0.5c0.1-0.2,0.4-0.2,0.6-0.1c-0.1,0.2-0.2,0.1-0.3,0.2
		c0.2,0.1,0.5,0.1,0.4,0.4C282.3,35.3,282.1,35.2,281.8,35z"/>
	<path class="st44" d="M302.3,31.6c0.1-0.2-0.2-0.6,0.3-0.6c0.5,0,0.2,0.4,0.3,0.6C302.7,31.4,302.5,31.4,302.3,31.6z"/>
	<path class="st41" d="M300.9,31.2c0.2,0.2,0.3,0.2,0.3-0.1c0.2-0.2,0.3-0.1,0.3,0.2c0,0.2-0.1,0.1-0.2,0.2
		C300.9,31.8,300.9,31.5,300.9,31.2z"/>
	<path class="st45" d="M283.2,35.1c-0.2,0.1-0.4,0.1-0.4-0.1c0-0.2-0.3-0.4,0-0.7c0.1-0.2,0.2-0.1,0.2,0c0,0.1,0.3,0,0.2,0.3
		C282.9,34.9,282.9,34.9,283.2,35.1z"/>
	<path class="st40" d="M285.4,34.5c-0.2,0.2-0.5,0-0.5,0.3c0,0.3,0.3,0.1,0.4,0.3c-0.2,0.2-0.4,0.1-0.6-0.1c-0.1-0.1-0.1-0.3,0-0.5
		C285,34.4,285.2,34.3,285.4,34.5z"/>
	<path class="st46" d="M302.1,31c0,0.2-0.2,0.2-0.2,0.2c0.4,0-0.2,0.4,0.2,0.4c-0.1,0.1-0.2,0.1-0.3,0c-0.2,0-0.1-0.3-0.1-0.4
		c0-0.3,0.2-0.2,0.3-0.2C302,31,302.1,31,302.1,31z"/>
	<path class="st47" d="M305.4,32.8c-0.1,0-0.3,0-0.4,0c-0.1-0.1,0.1-0.1,0-0.2c-0.3-0.3-0.1-0.4,0.2-0.5c0.1,0,0.1,0,0.2,0
		C305.1,32.3,305.7,32.5,305.4,32.8z"/>
	<path class="st48" d="M284.8,34.4c-0.4,0.1-0.3,0.5-0.5,0.8C284,34.6,284.1,34.4,284.8,34.4z"/>
	<path class="st49" d="M286.9,34.4c-0.4,0.1-0.2,0.4-0.3,0.7C286.4,34.7,286.4,34.5,286.9,34.4z"/>
	<path class="st44" d="M303.1,30.9c0.1,0.3,0.1,0.5,0,0.7c0,0-0.1,0-0.1,0C302.9,31.4,302.9,31.3,303.1,30.9z"/>
	<path class="st50" d="M304.7,31.5C304.7,31.4,304.7,31.4,304.7,31.5c0.3-0.1,0.1-0.3,0.3-0.4c0,0.2,0.1,0.4-0.1,0.6
		C304.8,31.7,304.7,31.6,304.7,31.5z"/>
	<path class="st36" d="M323.5,31.6c-0.5-0.1-0.8,0.1-1.1,0.5c-0.2,0.3-0.7,0.3-0.9,0c-0.2-0.3-0.2-0.7,0.1-1
		c0.3-0.3,0.7-0.3,0.9,0.1C322.7,31.7,323.1,31.5,323.5,31.6z"/>
	<path class="st51" d="M321.6,30.5c-0.5,0-1-0.1-1.4,0c-0.6,0.1-1.2,0-1.8,0.1c-0.1,0-0.3,0.1-0.3,0c0-0.1,0-0.2,0-0.3
		c0.1-0.2,0.2,0,0.3,0c0.9-0.1,1.7-0.1,2.6,0c0.2,0,0.4,0,0.7,0C321.6,30.3,321.8,30.4,321.6,30.5z"/>
	<path class="st52" d="M324.2,33.6c-0.4,0.2-0.7,0.1-0.9-0.2c-0.2-0.3-0.2-0.5,0-0.8c0.3-0.3,0.6-0.4,0.9-0.2
		C324.2,32.8,324.2,33.2,324.2,33.6z"/>
	<path class="st53" d="M324.3,32.4c0.4-0.2,0.7-0.1,0.9,0.2c0.2,0.2,0.2,0.5,0,0.7c-0.3,0.3-0.6,0.4-0.9,0.2
		C324.4,33.2,324.4,32.8,324.3,32.4z"/>
	<path class="st36" d="M321.2,33.2c0-0.3,0.2-0.4,0.5-0.5c0.4,0,0.4,0.5,0.7,0.6c-0.3,0.1-0.3,0.5-0.7,0.5
		C321.3,33.8,321.2,33.6,321.2,33.2z"/>
	<path class="st54" d="M323.5,30.2c0.6,0.5,1.2,0.7,1.8,0c0.1,0.6-0.2,0.9-0.8,0.9C323.8,31.1,323.5,30.9,323.5,30.2z"/>
	<path class="st55" d="M324.3,32.4c0.3,0.4,0.3,0.8,0,1.2c0,0-0.1,0-0.1,0c-0.3-0.4-0.3-0.8,0-1.2C324.2,32.4,324.3,32.4,324.3,32.4
		z"/>
	<path class="st56" d="M325,30c-0.4-0.1-0.9,0.5-1.3,0C324.2,29.7,324.6,29.6,325,30z"/>
	<path class="st57" d="M321.6,30.5c0-0.1-0.1-0.3,0-0.4c0.2,0,0.4,0,0.6,0c0.1,0,0.3-0.1,0.3,0.2c0,0.2-0.2,0.3-0.4,0.2
		C322,30.5,321.8,30.5,321.6,30.5z"/>
	<g>
		<path class="st58" d="M340.1,29c0.8,0,1.6,0,2.4,0c0.3,0,0.4,0.1,0.4,0.4c0,1.6,0,3.2,0,4.9c0,0.3-0.1,0.4-0.4,0.4
			c-1.6,0-3.2,0-4.9,0c-0.3,0-0.4-0.1-0.4-0.4c0-1.6,0-3.2,0-4.9c0-0.3,0.1-0.4,0.4-0.4C338.4,29,339.3,29,340.1,29z"/>
		<path class="st59" d="M340,32.7c-0.1-0.1-0.2-0.1-0.2-0.2c-0.4-0.5-0.9-0.8-1.3-1.3c0.5-0.4,0.9-0.9,1.4-1.4
			c0.2,0.3,0.1,0.6-0.2,0.9c-0.5,0.5-0.5,0.5,0,1C340,32.1,340.1,32.3,340,32.7z"/>
		<path class="st60" d="M340.2,29.9c0.4,0.4,0.8,0.8,1.2,1.2c0.2,0.2,0.2,0.3,0,0.4c-0.3,0.3-0.6,0.6-1,0.9
			c-0.1,0.1-0.1,0.2-0.3,0.1c-0.1-0.1-0.1-0.2-0.1-0.3c0-0.3,0.1-0.4,0.3-0.6c0.4-0.3,0.4-0.5,0-0.8
			C340.1,30.7,340.1,30.3,340.2,29.9z"/>
		<path class="st61" d="M340.5,33.8c-0.2,0.2-0.5,0.1-0.7,0.1c0.1-0.2,0.1-0.4,0.2-0.7c0-0.3,0.3-0.2,0.4-0.2c0.2,0,0.3,0.2,0.2,0.3
			C340.3,33.5,340.5,33.6,340.5,33.8L340.5,33.8z"/>
		<path class="st62" d="M340.5,33.8c0.3-0.2,0.4-0.5,0.8-0.8c0.2,0.2-0.1,0.5,0,0.8c0,0.1-0.1,0.1-0.1,0.1
			C341,33.6,340.7,33.9,340.5,33.8C340.5,33.8,340.5,33.8,340.5,33.8z"/>
		<path class="st63" d="M338.7,33.8c-0.4,0.2-0.5,0.2-0.7-0.1c-0.1-0.2,0-0.4,0.1-0.5c0.2-0.2,0.4-0.2,0.7,0c-0.4-0.1-0.5,0-0.6,0.4
			C338.2,33.8,338.4,33.8,338.7,33.8z"/>
		<path class="st64" d="M342.2,33.8c-0.2,0.2-0.5,0.1-0.7,0.1c0.1-0.3,0.1-0.5,0.2-0.7c0-0.2,0.1-0.1,0.2-0.1c0.2,0,0,0.1,0,0.2
			c0,0.1,0,0.1,0,0.2C341.8,33.8,341.8,33.8,342.2,33.8z"/>
		<path class="st65" d="M339.6,32.9c0,0.3,0,0.4-0.1,0.5c0,0.2,0.1,0.4-0.1,0.5c-0.2,0-0.1-0.2-0.3-0.3c-0.1,0,0.1-0.2,0.2-0.3
			C339.3,33.2,339.4,33.1,339.6,32.9z"/>
	</g>
	<path class="st66" d="M269.5,31.1c0.1,0.3,0.1,0.6,0.2,0.9c0.1,0.3,0,0.4-0.3,0.4c-0.4,0-0.5-0.1-0.3-0.5c0.1-0.3,0.2-0.6,0.3-0.9
		C269.4,31.1,269.4,31.1,269.5,31.1z"/>
	<path class="st67" d="M300.9,31.1c-0.2,0-0.2,0-0.3,0.4c-0.2-0.1-0.1-0.5-0.5-0.5c0.2-0.2,0.5-0.1,0.8-0.1
		C301,30.9,301,31.1,300.9,31.1z"/>
	<path class="st68" d="M304.3,32.7c0,0.1-0.1,0.1-0.1,0c-0.1-0.1-0.3,0-0.3-0.1c0.3,0-0.1-0.2,0-0.3c0.2,0.1,0.3-0.2,0.4-0.3
		c0.1,0,0.1,0,0.2,0c0,0.2,0.1,0.3,0.3,0.5C304.6,32.8,304.4,32.7,304.3,32.7z"/>
	<path class="st69" d="M304.3,32.7c0.1-0.1,0.2,0,0.3-0.2c-0.3-0.1-0.5-0.2-0.2-0.5c0.1,0,0.2,0,0.2,0c0,0,0,0,0,0
		c-0.1,0.2,0.1,0.3,0.1,0.5c0,0.1,0,0.2-0.2,0.2C304.6,32.8,304.4,32.8,304.3,32.7z"/>
	<path class="st70" d="M304.7,32.8c0.1-0.1,0.1-0.2,0.1-0.2c-0.3-0.1-0.1-0.3-0.1-0.4c0.1,0,0.3,0,0.4,0c-0.1,0.1-0.4,0.3,0,0.4
		c0.1,0,0.1,0.1-0.2,0.2C304.9,32.9,304.8,32.9,304.7,32.8z"/>
	<path class="st71" d="M302.8,32.7c-0.1,0-0.3-0.1-0.3-0.1c-0.3,0.3-0.5,0.1-0.8,0.1l0,0c0-0.2,0-0.4,0.3-0.4c0.3,0,0.6,0,0.9,0
		C303.1,32.4,303,32.5,302.8,32.7z"/>
	<path class="st72" d="M302.8,32.7c0.1-0.1,0.1-0.3,0.1-0.4c0.4-0.1,0.7,0,0.5,0.5C303.3,32.3,303.1,32.8,302.8,32.7z"/>
	<path class="st73" d="M301.8,32.6c-0.6,0.2-0.6,0.2-0.6-0.4C301.3,32.4,301.4,32.8,301.8,32.6C301.8,32.7,301.8,32.6,301.8,32.6z"
		/>
	<path class="st74" d="M303.9,32.3c-0.2,0.1,0.6,0,0,0.2c-0.1,0,0.2,0,0.2,0.2C303.8,32.8,303.7,32.6,303.9,32.3
		C303.8,32.3,303.8,32.3,303.9,32.3C303.8,32.3,303.8,32.3,303.9,32.3z"/>
	<path class="st75" d="M287.7,34.8c0,0.2-0.1,0.2-0.2,0.2c-0.2,0-0.2-0.1-0.2-0.2c0-0.1,0.1-0.2,0.2-0.2
		C287.6,34.6,287.6,34.7,287.7,34.8z"/>
	<path class="st75" d="M281.5,34.8c0,0.1-0.1,0.2-0.2,0.2c-0.2,0-0.2-0.1-0.2-0.3c0-0.1,0.1-0.2,0.2-0.2
		C281.4,34.6,281.5,34.7,281.5,34.8z"/>
	<path class="st76" d="M286.1,34.8c0,0.1-0.1,0.2-0.2,0.2c-0.2,0-0.2-0.1-0.2-0.3c0-0.1,0.1-0.2,0.2-0.2
		C286.1,34.6,286.1,34.7,286.1,34.8z"/>
</g>
<g>
	<g>
		<path class="st58" d="M98.7,29.1c0.8,0,1.6,0,2.4,0c0.3,0,0.4,0.1,0.4,0.4c0,1.6,0,3.2,0,4.9c0,0.3-0.1,0.4-0.4,0.4
			c-1.6,0-3.2,0-4.9,0c-0.3,0-0.4-0.1-0.4-0.4c0-1.6,0-3.2,0-4.9c0-0.3,0.1-0.4,0.4-0.4C97,29.2,97.8,29.1,98.7,29.1z"/>
		<path class="st59" d="M98.5,32.9c-0.1-0.1-0.2-0.1-0.2-0.2c-0.4-0.5-0.9-0.8-1.3-1.3c0.5-0.4,0.9-0.9,1.4-1.4
			c0.2,0.3,0.1,0.6-0.2,0.9c-0.5,0.5-0.5,0.5,0,1C98.6,32.2,98.6,32.5,98.5,32.9z"/>
		<path class="st60" d="M98.8,30c0.4,0.4,0.8,0.8,1.2,1.2c0.2,0.2,0.2,0.3,0,0.4c-0.3,0.3-0.6,0.6-1,0.9c-0.1,0.1-0.1,0.2-0.3,0.1
			c-0.1-0.1-0.1-0.2-0.1-0.3c0-0.3,0.1-0.4,0.3-0.6c0.4-0.3,0.4-0.5,0-0.8C98.7,30.8,98.7,30.4,98.8,30z"/>
		<path class="st61" d="M99.1,33.9c-0.2,0.2-0.5,0.1-0.7,0.1c0.1-0.2,0.1-0.4,0.2-0.7c0-0.3,0.3-0.2,0.4-0.2c0.2,0,0.3,0.2,0.2,0.3
			C98.9,33.6,99.1,33.8,99.1,33.9L99.1,33.9z"/>
		<path class="st62" d="M99.1,33.9c0.3-0.2,0.4-0.5,0.8-0.8c0.2,0.2-0.1,0.5,0,0.8c0,0.1-0.1,0.1-0.1,0.1
			C99.6,33.7,99.3,34,99.1,33.9C99.1,33.9,99.1,33.9,99.1,33.9z"/>
		<path class="st63" d="M97.3,33.9c-0.4,0.2-0.5,0.2-0.7-0.1c-0.1-0.2,0-0.4,0.1-0.5c0.2-0.2,0.4-0.2,0.7,0c-0.4-0.1-0.5,0-0.6,0.4
			C96.8,33.9,97,33.9,97.3,33.9z"/>
		<path class="st64" d="M100.8,33.9c-0.2,0.2-0.5,0.1-0.7,0.1c0.1-0.3,0.1-0.5,0.2-0.7c0-0.2,0.1-0.1,0.2-0.1c0.2,0,0,0.1,0,0.2
			c0,0.1,0,0.1,0,0.2C100.3,33.9,100.3,33.9,100.8,33.9z"/>
		<path class="st65" d="M98.2,33c0,0.3,0,0.4-0.1,0.5c0,0.2,0.1,0.4-0.1,0.5c-0.2,0-0.1-0.2-0.3-0.3c-0.1,0,0.1-0.2,0.2-0.3
			C97.9,33.3,98,33.2,98.2,33z"/>
	</g>
	<path class="st23" d="M63.8,33.3c-1.2,0.9-2.7,0.8-3.7-0.3c-1-1-1.1-2.6-0.3-3.7c0.9-1.2,2.4-1.5,3.7-0.8c0.1,0.1,0.2,0.1,0.3,0.2
		c0,0.1,0,0.1,0,0.2c0,0.2-0.2,0.3-0.3,0.4c-0.8,1-0.8,2.4,0,3.4C63.6,33,63.9,33.1,63.8,33.3z"/>
	<path class="st24" d="M63.8,28.9C63.8,28.9,63.8,28.8,63.8,28.9c0.1-0.1,0.3-0.2,0.4-0.2c1.3-0.7,2.7-0.4,3.7,0.7
		c0.9,1.1,0.8,2.6-0.1,3.6c-0.9,1.1-2.4,1.3-3.7,0.5c-0.1,0-0.1-0.1-0.2-0.2c0-0.2,0.2-0.4,0.3-0.5c0.9-1.3,0.9-2.5-0.1-3.6
		C63.9,29.1,63.8,29,63.8,28.9z"/>
	<path class="st25" d="M51.2,34.3c-0.3,0-0.5,0-0.7,0c-0.1,0-0.3,0-0.3-0.2c0-0.3-0.2-0.5-0.5-0.4c-0.4,0.1-0.9-0.3-1.1,0.3
		c-0.1,0.3-0.3,0.3-1.2,0.2c0.5-1.2,1.1-2.5,1.6-3.6c0.2-0.5,0.7-0.3,1.1-0.3c0.3,0,0.3,0.3,0.3,0.5C50.8,32,51,33.1,51.2,34.3z"/>
	<path class="st26" d="M38,30.3c0.6,0,1.2,0,1.8,0c0.3,0,0.4,0.3,0.5,0.6c0.1,0.7,0.3,1.3,0.4,2.1c0.3-0.8,0.6-1.5,0.9-2.2
		c0.2-0.4,0.7-0.6,1.1-0.5c0.2,0.1,0.1,0.2,0.1,0.3c-0.5,1.1-1,2.3-1.5,3.4c-0.2,0.5-0.6,0.2-1,0.3c-0.3,0.1-0.4-0.2-0.4-0.4
		c-0.2-0.8-0.5-1.6-0.6-2.4c-0.1-0.6-0.5-0.9-1-1C38.3,30.5,38.1,30.5,38,30.3z"/>
	<path class="st27" d="M46.7,30.2c0.2,0.1,0.5,0.1,0.7,0.2c0.4,0.1,0.1,0.4,0.1,0.6c0,0.3-0.2,0.2-0.3,0.1c-0.3-0.1-0.6-0.1-0.9-0.1
		c-0.2,0-0.3,0.1-0.4,0.3c0,0.2,0.1,0.3,0.2,0.3c0.2,0.1,0.5,0.3,0.7,0.4c0.7,0.5,0.7,1.3,0.1,1.8c-0.5,0.5-1.8,0.6-2.4,0.3
		c-0.3-0.2,0-0.4,0-0.7c0-0.2,0.1-0.2,0.3-0.2c0.4,0.1,0.7,0.2,1.1,0.1c0.2-0.1,0.3-0.1,0.3-0.3c0-0.2-0.1-0.3-0.2-0.3
		c-0.2-0.1-0.4-0.2-0.6-0.3c-0.4-0.2-0.7-0.5-0.6-1c0-0.5,0.3-0.8,0.8-1C45.9,30.3,46.3,30.2,46.7,30.2z"/>
	<path class="st28" d="M85.6,33.3c0.2,0.5,0.1,1,0.1,1.6c0,0.2-0.2,0.2-0.3,0.2c-1.7,0-3.4,0-5.1,0c-0.2,0-0.3-0.1-0.3-0.3
		c0-0.2,0-0.5,0-0.7c0.2-0.2,0.4-0.1,0.6-0.1c1,0.1,1.8,0,2.6-0.7C84,33.2,84.8,33.3,85.6,33.3z"/>
	<path class="st29" d="M63.8,28.9c0.7,0.3,1.3,1.5,1.2,2.4c-0.1,0.8-0.4,1.5-1.1,2.1c0,0,0,0,0,0s0,0,0,0c-0.5-0.6-1-1.2-1-2
		C62.7,30.3,63.1,29.6,63.8,28.9z"/>
	<path class="st30" d="M82.7,31.4c-0.3,0-0.6,0-0.8,0c-0.2,0-0.3,0-0.4,0.2c0.1,0.2,0,0.3-0.1,0.3c-0.2,0.1-0.1-0.2-0.2-0.2l0,0
		c0,0-0.1-0.1-0.1-0.1c-0.2-0.1-0.4-0.1-0.6,0c-0.1,0.1-0.2,0.2-0.3,0.2c-0.2-0.7-0.1-1.5-0.1-2.2c0-0.2,0.2-0.2,0.3-0.2
		c0.7,0,1.4,0,2,0C83,29.9,83.1,30.8,82.7,31.4z"/>
	<path class="st31" d="M43.2,34.3c-0.5,0.1-0.6-0.1-0.4-0.5c0.3-1,0.5-2,0.7-3c0.1-0.4,0.7-0.7,1-0.5c0.1,0.1,0.1,0.2,0.1,0.3
		c-0.2,1.1-0.5,2.3-0.7,3.4C43.7,34.4,43.4,34.2,43.2,34.3z"/>
	<path class="st32" d="M83.3,33.4c-0.8,0.8-1.8,0.8-2.8,0.7c-0.2,0-0.3,0-0.5-0.1c0-0.5,0-1,0-1.5c0-0.4,0.3-0.4,0.5-0.4
		c0.7,0.1,1.5,0.1,2.2,0c0.4,0,0.8,0,1.2,0.1c0.1,0.1,0.2,0.1,0.1,0.3c-0.7,0.2-1.4,0.1-2,0.1c-0.1,0-0.3,0-0.4,0
		c-0.2,0-0.3,0.1-0.3,0.3c0,0.2,0.1,0.4,0.3,0.4c0.4,0,0.7,0.1,1.1-0.1C83,33.1,83.2,33.2,83.3,33.4z"/>
	<path class="st33" d="M84.1,32.4c0-0.1-0.1-0.1-0.1-0.2c0.3-0.2,0.7,0,1,0c0.4,0,0.4-0.2,0.4-0.4c0-0.2,0.2-0.5-0.4-0.4
		c-0.2,0.1-0.6,0-0.8-0.1c-0.2-0.6-0.3-1.3-0.1-1.9c0.5,0,1.2-0.2,1.5,0.1c0.3,0.3,0.1,1,0.1,1.5c0,0.5,0.2,1.1-0.1,1.6
		c-0.1,0.1-0.1,0.1-0.2,0.1c-0.1,0-0.3,0-0.4,0c-0.1,0-0.2,0-0.2,0c-0.1,0-0.2,0-0.2,0C84.3,32.6,84.2,32.6,84.1,32.4z"/>
	<path class="st34" d="M84.1,29.4c0.1,0.6,0.1,1.3,0.1,1.9c-0.5,0-1,0-1.5,0c0.3-0.7,0.2-1.3-0.2-1.9C83,29.4,83.5,29.4,84.1,29.4z"
		/>
	<path class="st35" d="M84.1,32.4c0.1,0,0.3,0,0.4,0.1c0,0.2-0.1,0.3-0.3,0.3c-0.2,0.2,0.1,0.2,0.2,0.3c0.1,0.1,0.1,0.1,0.2,0
		c0.1-0.1,0.2-0.1,0.4,0c0.1,0,0.2,0,0.4,0c0.1,0,0.3,0,0.3,0.1c0,0,0,0.1,0,0.1c-0.6,0.2-1.3,0.1-1.9,0.1c-0.1,0-0.2,0-0.3,0.1
		c-0.5-0.3-0.9,0.1-1.4,0c-0.2-0.1-0.6,0.1-0.7-0.2c-0.2-0.5,0-0.8,0.5-0.8C82.5,32.4,83.3,32.4,84.1,32.4z"/>
	<path class="st37" d="M84.9,31.9C84.9,31.9,84.9,31.9,84.9,31.9c-0.3,0.4-0.7,0-1,0.2c-0.2,0.1-0.4,0-0.4-0.2
		c0-0.3,0.1-0.4,0.4-0.4c0,0.1-0.2,0.1-0.2,0.2c-0.1,0.1-0.1,0.2,0,0.2c0.1,0.1,0.2,0,0.2-0.1c0.2-0.6,0.4-0.4,0.6,0.1
		c0.2-0.1,0-0.4,0.2-0.4C84.9,31.5,84.9,31.7,84.9,31.9C85,31.9,85,31.9,84.9,31.9z"/>
	<path class="st38" d="M60.4,35.6c-0.3-0.1,0-0.6-0.3-0.5c-0.3,0,0,0.4-0.3,0.5c-0.1-0.3-0.2-0.6,0-0.7c0.3-0.1,0.7-0.1,0.9,0
		c0.3,0.1,0.1,0.5,0.2,0.7c-0.2,0-0.2-0.1-0.2-0.2c0-0.1,0.1-0.3-0.1-0.3c-0.2,0-0.2,0.2-0.2,0.4C60.4,35.5,60.4,35.5,60.4,35.6z"/>
	<path class="st39" d="M68,34.5c0.2,0.3,0.1,0.5,0.1,0.8c0,0.2,0,0.3-0.3,0.4c-0.3,0-0.4-0.1-0.5-0.3c-0.1-0.2,0.1-0.5,0.3-0.5
		C67.9,34.9,67.9,34.7,68,34.5z"/>
	<path class="st39" d="M61.6,35.6c-0.4,0-0.5-0.1-0.5-0.4c0-0.2,0.1-0.4,0.4-0.4c0.2,0,0.5,0,0.4,0.4C61.9,35.4,62,35.7,61.6,35.6z"
		/>
	<path class="st40" d="M66.3,34.9c0.3,0,0.2,0.3,0.2,0.5c0,0.4-0.3,0.3-0.4,0.3c-0.3,0-0.4-0.2-0.4-0.4C65.8,34.9,66,34.8,66.3,34.9
		z"/>
	<path class="st41" d="M80.1,31.8c0.1-0.1,0.2-0.2,0.2-0.3c0.2,0.1,0.5-0.1,0.8,0.1c0,0,0,0.1,0,0.1c-0.2,0.1,0,0.4-0.2,0.4
		c-0.3,0-0.5-0.1-0.8,0C80.1,32,80.1,31.9,80.1,31.8z"/>
	<path class="st42" d="M64.2,35.6c-0.3,0.1-0.6,0.1-0.7-0.3c0-0.2,0.1-0.4,0.3-0.4c0.2-0.1,0.4,0.1,0.4,0.3c0.1,0.4-0.3,0.1-0.4,0.3
		C63.9,35.6,64.1,35.4,64.2,35.6z"/>
	<path class="st43" d="M62.1,35.5c0.1,0,0.2,0,0.4,0c-0.1-0.2-0.5-0.1-0.3-0.5c0.1-0.2,0.4-0.2,0.6-0.1c-0.1,0.2-0.2,0.1-0.3,0.2
		c0.2,0.1,0.5,0.1,0.4,0.4C62.6,35.7,62.3,35.7,62.1,35.5z"/>
	<path class="st44" d="M82.5,32.1c0.1-0.2-0.2-0.6,0.3-0.6c0.5,0,0.2,0.4,0.3,0.6C82.9,31.9,82.7,31.9,82.5,32.1z"/>
	<path class="st41" d="M81.1,31.7c0.2,0.2,0.3,0.2,0.3-0.1c0.2-0.2,0.3-0.1,0.3,0.2c0,0.2-0.1,0.1-0.2,0.2
		C81.1,32.2,81.2,32,81.1,31.7z"/>
	<path class="st45" d="M63.4,35.6c-0.2,0.1-0.4,0.1-0.4-0.1c0-0.2-0.3-0.4,0-0.7c0.1-0.2,0.2-0.1,0.2,0c0,0.1,0.3,0,0.2,0.3
		C63.1,35.3,63.1,35.3,63.4,35.6z"/>
	<path class="st40" d="M65.7,35c-0.2,0.2-0.5,0-0.5,0.3c0,0.3,0.3,0.1,0.4,0.3c-0.2,0.2-0.4,0.1-0.6-0.1c-0.1-0.1-0.1-0.3,0-0.5
		C65.2,34.8,65.4,34.8,65.7,35z"/>
	<path class="st46" d="M82.3,31.5c0,0.2-0.2,0.2-0.2,0.2c0.4,0-0.2,0.4,0.2,0.4c-0.1,0.1-0.2,0.1-0.3,0c-0.2,0-0.1-0.3-0.1-0.4
		c0-0.3,0.2-0.2,0.3-0.2C82.3,31.5,82.3,31.5,82.3,31.5z"/>
	<path class="st47" d="M85.6,33.2c-0.1,0-0.3,0-0.4,0c-0.1-0.1,0.1-0.1,0-0.2c-0.3-0.3-0.1-0.4,0.2-0.5c0.1,0,0.1,0,0.2,0
		C85.3,32.8,85.9,33,85.6,33.2z"/>
	<path class="st48" d="M65,34.9c-0.4,0.1-0.3,0.5-0.5,0.8C64.3,35,64.4,34.9,65,34.9z"/>
	<path class="st49" d="M67.2,34.9c-0.4,0.1-0.2,0.4-0.3,0.7C66.6,35.2,66.7,34.9,67.2,34.9z"/>
	<path class="st44" d="M83.3,31.4c0.1,0.3,0.1,0.5,0,0.7c0,0-0.1,0-0.1,0C83.1,31.9,83.2,31.7,83.3,31.4z"/>
	<path class="st50" d="M84.9,31.9C85,31.9,85,31.8,84.9,31.9c0.3-0.1,0.1-0.3,0.3-0.4c0,0.2,0.1,0.4-0.1,0.6
		C85.1,32.2,85,32,84.9,31.9z"/>
	<path class="st66" d="M49.7,31.6c0.1,0.3,0.1,0.6,0.2,0.9c0.1,0.3,0,0.4-0.3,0.4c-0.4,0-0.5-0.1-0.3-0.5c0.1-0.3,0.2-0.6,0.3-0.9
		C49.6,31.5,49.7,31.5,49.7,31.6z"/>
	<path class="st67" d="M81.1,31.6c-0.2,0-0.2,0-0.3,0.4c-0.2-0.1-0.1-0.5-0.5-0.5c0.2-0.2,0.5-0.1,0.8-0.1
		C81.3,31.4,81.2,31.5,81.1,31.6z"/>
	<path class="st68" d="M84.5,33.2c0,0.1-0.1,0.1-0.1,0c-0.1-0.1-0.3,0-0.3-0.1c0.3,0-0.1-0.2,0-0.3c0.2,0.1,0.3-0.2,0.4-0.3
		c0.1,0,0.1,0,0.2,0c0,0.2,0.1,0.3,0.3,0.5C84.8,33.2,84.6,33.1,84.5,33.2z"/>
	<path class="st69" d="M84.5,33.2c0.1-0.1,0.2,0,0.3-0.2c-0.3-0.1-0.5-0.2-0.2-0.5c0.1,0,0.2,0,0.2,0c0,0,0,0,0,0
		c-0.1,0.2,0.1,0.3,0.1,0.5c0,0.1,0,0.2-0.2,0.2C84.8,33.2,84.7,33.2,84.5,33.2z"/>
	<path class="st70" d="M84.9,33.2C85,33.2,85.1,33,85,33c-0.3-0.1-0.1-0.3-0.1-0.4c0.1,0,0.3,0,0.4,0c-0.1,0.1-0.4,0.3,0,0.4
		c0.1,0,0.1,0.1-0.2,0.2C85.1,33.3,85,33.3,84.9,33.2z"/>
	<path class="st71" d="M83.1,33.1c-0.1,0-0.3-0.1-0.3-0.1c-0.3,0.3-0.5,0.1-0.8,0.1l0,0c0-0.2,0-0.4,0.3-0.4c0.3,0,0.6,0,0.9,0
		C83.3,32.9,83.3,33,83.1,33.1z"/>
	<path class="st72" d="M83.1,33.1c0.1-0.1,0.1-0.3,0.1-0.4c0.4-0.1,0.7,0,0.5,0.5C83.6,32.8,83.3,33.3,83.1,33.1z"/>
	<path class="st73" d="M82,33.1c-0.6,0.2-0.6,0.2-0.6-0.4C81.6,32.9,81.6,33.3,82,33.1C82,33.1,82,33.1,82,33.1z"/>
	<path class="st74" d="M84.1,32.8c-0.2,0.1,0.6,0,0,0.2c-0.1,0,0.2,0,0.2,0.2C84,33.3,83.9,33.1,84.1,32.8
		C84,32.8,84,32.8,84.1,32.8C84.1,32.8,84.1,32.8,84.1,32.8z"/>
	<path class="st75" d="M67.9,35.2c0,0.2-0.1,0.2-0.2,0.2c-0.2,0-0.2-0.1-0.2-0.2c0-0.1,0.1-0.2,0.2-0.2
		C67.8,35.1,67.9,35.1,67.9,35.2z"/>
	<path class="st75" d="M61.7,35.3c0,0.1-0.1,0.2-0.2,0.2c-0.2,0-0.2-0.1-0.2-0.3c0-0.1,0.1-0.2,0.2-0.2
		C61.6,35.1,61.7,35.1,61.7,35.3z"/>
	<path class="st76" d="M66.4,35.2c0,0.1-0.1,0.2-0.2,0.2c-0.2,0-0.2-0.1-0.2-0.3c0-0.1,0.1-0.2,0.2-0.2
		C66.3,35.1,66.4,35.1,66.4,35.2z"/>
</g>
</svg>
